<mxfile host="Electron" agent="Mozilla/5.0 (Windows NT 10.0; Win64; x64) AppleWebKit/537.36 (KHTML, like Gecko) draw.io/26.2.15 Chrome/134.0.6998.205 Electron/35.2.1 Safari/537.36" version="26.2.15">
  <diagram name="Page-1" id="ONFdzGzwc8kWZpUr1pLF">
    <mxGraphModel dx="4651" dy="616" grid="1" gridSize="10" guides="1" tooltips="1" connect="1" arrows="1" fold="1" page="1" pageScale="1" pageWidth="850" pageHeight="1100" math="0" shadow="0">
      <root>
        <mxCell id="0" />
        <mxCell id="1" parent="0" />
        <mxCell id="ZSzThWlPJtmQaBzK4Zqw-724" value="" style="shape=table;startSize=0;container=1;collapsible=0;childLayout=tableLayout;" parent="1" vertex="1">
          <mxGeometry x="-1040" y="1360" width="440" height="719.9999999999995" as="geometry" />
        </mxCell>
        <mxCell id="ZSzThWlPJtmQaBzK4Zqw-725" value="" style="shape=tableRow;horizontal=0;startSize=0;swimlaneHead=0;swimlaneBody=0;strokeColor=inherit;top=0;left=0;bottom=0;right=0;collapsible=0;dropTarget=0;fillColor=none;points=[[0,0.5],[1,0.5]];portConstraint=eastwest;" parent="ZSzThWlPJtmQaBzK4Zqw-724" vertex="1">
          <mxGeometry width="440" height="40" as="geometry" />
        </mxCell>
        <mxCell id="ZSzThWlPJtmQaBzK4Zqw-726" value="&lt;b&gt;sys_user&lt;/b&gt;" style="shape=partialRectangle;html=1;whiteSpace=wrap;connectable=0;strokeColor=inherit;overflow=hidden;fillColor=none;top=0;left=0;bottom=0;right=0;pointerEvents=1;rowspan=1;colspan=2;" parent="ZSzThWlPJtmQaBzK4Zqw-725" vertex="1">
          <mxGeometry width="200" height="40" as="geometry">
            <mxRectangle width="40" height="40" as="alternateBounds" />
          </mxGeometry>
        </mxCell>
        <mxCell id="ZSzThWlPJtmQaBzK4Zqw-727" value="" style="shape=partialRectangle;html=1;whiteSpace=wrap;connectable=0;strokeColor=inherit;overflow=hidden;fillColor=none;top=0;left=0;bottom=0;right=0;pointerEvents=1;" parent="ZSzThWlPJtmQaBzK4Zqw-725" vertex="1" visible="0">
          <mxGeometry x="40" width="160" height="40" as="geometry">
            <mxRectangle width="160" height="40" as="alternateBounds" />
          </mxGeometry>
        </mxCell>
        <mxCell id="ZSzThWlPJtmQaBzK4Zqw-728" value="TYPE" style="shape=partialRectangle;html=1;whiteSpace=wrap;connectable=0;strokeColor=inherit;overflow=hidden;fillColor=none;top=0;left=0;bottom=0;right=0;pointerEvents=1;" parent="ZSzThWlPJtmQaBzK4Zqw-725" vertex="1">
          <mxGeometry x="200" width="120" height="40" as="geometry">
            <mxRectangle width="120" height="40" as="alternateBounds" />
          </mxGeometry>
        </mxCell>
        <mxCell id="ZSzThWlPJtmQaBzK4Zqw-729" value="DETAILS" style="shape=partialRectangle;html=1;whiteSpace=wrap;connectable=0;strokeColor=inherit;overflow=hidden;fillColor=none;top=0;left=0;bottom=0;right=0;pointerEvents=1;" parent="ZSzThWlPJtmQaBzK4Zqw-725" vertex="1">
          <mxGeometry x="320" width="120" height="40" as="geometry">
            <mxRectangle width="120" height="40" as="alternateBounds" />
          </mxGeometry>
        </mxCell>
        <mxCell id="ZSzThWlPJtmQaBzK4Zqw-730" value="" style="shape=tableRow;horizontal=0;startSize=0;swimlaneHead=0;swimlaneBody=0;strokeColor=inherit;top=0;left=0;bottom=0;right=0;collapsible=0;dropTarget=0;fillColor=none;points=[[0,0.5],[1,0.5]];portConstraint=eastwest;" parent="ZSzThWlPJtmQaBzK4Zqw-724" vertex="1">
          <mxGeometry y="40" width="440" height="40" as="geometry" />
        </mxCell>
        <mxCell id="ZSzThWlPJtmQaBzK4Zqw-731" value="PK" style="shape=partialRectangle;html=1;whiteSpace=wrap;connectable=0;strokeColor=inherit;overflow=hidden;fillColor=none;top=0;left=0;bottom=0;right=0;pointerEvents=1;" parent="ZSzThWlPJtmQaBzK4Zqw-730" vertex="1">
          <mxGeometry width="40" height="40" as="geometry">
            <mxRectangle width="40" height="40" as="alternateBounds" />
          </mxGeometry>
        </mxCell>
        <mxCell id="ZSzThWlPJtmQaBzK4Zqw-732" value="user_id" style="shape=partialRectangle;html=1;whiteSpace=wrap;connectable=0;strokeColor=inherit;overflow=hidden;fillColor=none;top=0;left=0;bottom=0;right=0;pointerEvents=1;" parent="ZSzThWlPJtmQaBzK4Zqw-730" vertex="1">
          <mxGeometry x="40" width="160" height="40" as="geometry">
            <mxRectangle width="160" height="40" as="alternateBounds" />
          </mxGeometry>
        </mxCell>
        <mxCell id="ZSzThWlPJtmQaBzK4Zqw-733" value="" style="shape=partialRectangle;html=1;whiteSpace=wrap;connectable=0;strokeColor=inherit;overflow=hidden;fillColor=none;top=0;left=0;bottom=0;right=0;pointerEvents=1;" parent="ZSzThWlPJtmQaBzK4Zqw-730" vertex="1">
          <mxGeometry x="200" width="120" height="40" as="geometry">
            <mxRectangle width="120" height="40" as="alternateBounds" />
          </mxGeometry>
        </mxCell>
        <mxCell id="ZSzThWlPJtmQaBzK4Zqw-734" value="AUTO INCREMENT" style="shape=partialRectangle;html=1;whiteSpace=wrap;connectable=0;strokeColor=inherit;overflow=hidden;fillColor=none;top=0;left=0;bottom=0;right=0;pointerEvents=1;" parent="ZSzThWlPJtmQaBzK4Zqw-730" vertex="1">
          <mxGeometry x="320" width="120" height="40" as="geometry">
            <mxRectangle width="120" height="40" as="alternateBounds" />
          </mxGeometry>
        </mxCell>
        <mxCell id="ZSzThWlPJtmQaBzK4Zqw-735" value="" style="shape=tableRow;horizontal=0;startSize=0;swimlaneHead=0;swimlaneBody=0;strokeColor=inherit;top=0;left=0;bottom=0;right=0;collapsible=0;dropTarget=0;fillColor=none;points=[[0,0.5],[1,0.5]];portConstraint=eastwest;" parent="ZSzThWlPJtmQaBzK4Zqw-724" vertex="1">
          <mxGeometry y="80" width="440" height="40" as="geometry" />
        </mxCell>
        <mxCell id="ZSzThWlPJtmQaBzK4Zqw-736" value="" style="shape=partialRectangle;html=1;whiteSpace=wrap;connectable=0;strokeColor=inherit;overflow=hidden;fillColor=none;top=0;left=0;bottom=0;right=0;pointerEvents=1;" parent="ZSzThWlPJtmQaBzK4Zqw-735" vertex="1">
          <mxGeometry width="40" height="40" as="geometry">
            <mxRectangle width="40" height="40" as="alternateBounds" />
          </mxGeometry>
        </mxCell>
        <mxCell id="ZSzThWlPJtmQaBzK4Zqw-737" value="username" style="shape=partialRectangle;html=1;whiteSpace=wrap;connectable=0;strokeColor=inherit;overflow=hidden;fillColor=none;top=0;left=0;bottom=0;right=0;pointerEvents=1;" parent="ZSzThWlPJtmQaBzK4Zqw-735" vertex="1">
          <mxGeometry x="40" width="160" height="40" as="geometry">
            <mxRectangle width="160" height="40" as="alternateBounds" />
          </mxGeometry>
        </mxCell>
        <mxCell id="ZSzThWlPJtmQaBzK4Zqw-738" value="" style="shape=partialRectangle;html=1;whiteSpace=wrap;connectable=0;strokeColor=inherit;overflow=hidden;fillColor=none;top=0;left=0;bottom=0;right=0;pointerEvents=1;" parent="ZSzThWlPJtmQaBzK4Zqw-735" vertex="1">
          <mxGeometry x="200" width="120" height="40" as="geometry">
            <mxRectangle width="120" height="40" as="alternateBounds" />
          </mxGeometry>
        </mxCell>
        <mxCell id="ZSzThWlPJtmQaBzK4Zqw-739" value="" style="shape=partialRectangle;html=1;whiteSpace=wrap;connectable=0;strokeColor=inherit;overflow=hidden;fillColor=none;top=0;left=0;bottom=0;right=0;pointerEvents=1;" parent="ZSzThWlPJtmQaBzK4Zqw-735" vertex="1">
          <mxGeometry x="320" width="120" height="40" as="geometry">
            <mxRectangle width="120" height="40" as="alternateBounds" />
          </mxGeometry>
        </mxCell>
        <mxCell id="ZSzThWlPJtmQaBzK4Zqw-770" style="shape=tableRow;horizontal=0;startSize=0;swimlaneHead=0;swimlaneBody=0;strokeColor=inherit;top=0;left=0;bottom=0;right=0;collapsible=0;dropTarget=0;fillColor=none;points=[[0,0.5],[1,0.5]];portConstraint=eastwest;" parent="ZSzThWlPJtmQaBzK4Zqw-724" vertex="1">
          <mxGeometry y="120" width="440" height="40" as="geometry" />
        </mxCell>
        <mxCell id="ZSzThWlPJtmQaBzK4Zqw-771" style="shape=partialRectangle;html=1;whiteSpace=wrap;connectable=0;strokeColor=inherit;overflow=hidden;fillColor=none;top=0;left=0;bottom=0;right=0;pointerEvents=1;" parent="ZSzThWlPJtmQaBzK4Zqw-770" vertex="1">
          <mxGeometry width="40" height="40" as="geometry">
            <mxRectangle width="40" height="40" as="alternateBounds" />
          </mxGeometry>
        </mxCell>
        <mxCell id="ZSzThWlPJtmQaBzK4Zqw-772" value="full_name" style="shape=partialRectangle;html=1;whiteSpace=wrap;connectable=0;strokeColor=inherit;overflow=hidden;fillColor=none;top=0;left=0;bottom=0;right=0;pointerEvents=1;" parent="ZSzThWlPJtmQaBzK4Zqw-770" vertex="1">
          <mxGeometry x="40" width="160" height="40" as="geometry">
            <mxRectangle width="160" height="40" as="alternateBounds" />
          </mxGeometry>
        </mxCell>
        <mxCell id="ZSzThWlPJtmQaBzK4Zqw-773" value="" style="shape=partialRectangle;html=1;whiteSpace=wrap;connectable=0;strokeColor=inherit;overflow=hidden;fillColor=none;top=0;left=0;bottom=0;right=0;pointerEvents=1;" parent="ZSzThWlPJtmQaBzK4Zqw-770" vertex="1">
          <mxGeometry x="200" width="120" height="40" as="geometry">
            <mxRectangle width="120" height="40" as="alternateBounds" />
          </mxGeometry>
        </mxCell>
        <mxCell id="ZSzThWlPJtmQaBzK4Zqw-774" style="shape=partialRectangle;html=1;whiteSpace=wrap;connectable=0;strokeColor=inherit;overflow=hidden;fillColor=none;top=0;left=0;bottom=0;right=0;pointerEvents=1;" parent="ZSzThWlPJtmQaBzK4Zqw-770" vertex="1">
          <mxGeometry x="320" width="120" height="40" as="geometry">
            <mxRectangle width="120" height="40" as="alternateBounds" />
          </mxGeometry>
        </mxCell>
        <mxCell id="ZSzThWlPJtmQaBzK4Zqw-775" style="shape=tableRow;horizontal=0;startSize=0;swimlaneHead=0;swimlaneBody=0;strokeColor=inherit;top=0;left=0;bottom=0;right=0;collapsible=0;dropTarget=0;fillColor=none;points=[[0,0.5],[1,0.5]];portConstraint=eastwest;" parent="ZSzThWlPJtmQaBzK4Zqw-724" vertex="1">
          <mxGeometry y="160" width="440" height="40" as="geometry" />
        </mxCell>
        <mxCell id="ZSzThWlPJtmQaBzK4Zqw-776" style="shape=partialRectangle;html=1;whiteSpace=wrap;connectable=0;strokeColor=inherit;overflow=hidden;fillColor=none;top=0;left=0;bottom=0;right=0;pointerEvents=1;" parent="ZSzThWlPJtmQaBzK4Zqw-775" vertex="1">
          <mxGeometry width="40" height="40" as="geometry">
            <mxRectangle width="40" height="40" as="alternateBounds" />
          </mxGeometry>
        </mxCell>
        <mxCell id="ZSzThWlPJtmQaBzK4Zqw-777" value="phone_number" style="shape=partialRectangle;html=1;whiteSpace=wrap;connectable=0;strokeColor=inherit;overflow=hidden;fillColor=none;top=0;left=0;bottom=0;right=0;pointerEvents=1;" parent="ZSzThWlPJtmQaBzK4Zqw-775" vertex="1">
          <mxGeometry x="40" width="160" height="40" as="geometry">
            <mxRectangle width="160" height="40" as="alternateBounds" />
          </mxGeometry>
        </mxCell>
        <mxCell id="ZSzThWlPJtmQaBzK4Zqw-778" style="shape=partialRectangle;html=1;whiteSpace=wrap;connectable=0;strokeColor=inherit;overflow=hidden;fillColor=none;top=0;left=0;bottom=0;right=0;pointerEvents=1;" parent="ZSzThWlPJtmQaBzK4Zqw-775" vertex="1">
          <mxGeometry x="200" width="120" height="40" as="geometry">
            <mxRectangle width="120" height="40" as="alternateBounds" />
          </mxGeometry>
        </mxCell>
        <mxCell id="ZSzThWlPJtmQaBzK4Zqw-779" style="shape=partialRectangle;html=1;whiteSpace=wrap;connectable=0;strokeColor=inherit;overflow=hidden;fillColor=none;top=0;left=0;bottom=0;right=0;pointerEvents=1;" parent="ZSzThWlPJtmQaBzK4Zqw-775" vertex="1">
          <mxGeometry x="320" width="120" height="40" as="geometry">
            <mxRectangle width="120" height="40" as="alternateBounds" />
          </mxGeometry>
        </mxCell>
        <mxCell id="ZSzThWlPJtmQaBzK4Zqw-780" style="shape=tableRow;horizontal=0;startSize=0;swimlaneHead=0;swimlaneBody=0;strokeColor=inherit;top=0;left=0;bottom=0;right=0;collapsible=0;dropTarget=0;fillColor=none;points=[[0,0.5],[1,0.5]];portConstraint=eastwest;" parent="ZSzThWlPJtmQaBzK4Zqw-724" vertex="1">
          <mxGeometry y="200" width="440" height="40" as="geometry" />
        </mxCell>
        <mxCell id="ZSzThWlPJtmQaBzK4Zqw-781" style="shape=partialRectangle;html=1;whiteSpace=wrap;connectable=0;strokeColor=inherit;overflow=hidden;fillColor=none;top=0;left=0;bottom=0;right=0;pointerEvents=1;" parent="ZSzThWlPJtmQaBzK4Zqw-780" vertex="1">
          <mxGeometry width="40" height="40" as="geometry">
            <mxRectangle width="40" height="40" as="alternateBounds" />
          </mxGeometry>
        </mxCell>
        <mxCell id="ZSzThWlPJtmQaBzK4Zqw-782" value="email" style="shape=partialRectangle;html=1;whiteSpace=wrap;connectable=0;strokeColor=inherit;overflow=hidden;fillColor=none;top=0;left=0;bottom=0;right=0;pointerEvents=1;" parent="ZSzThWlPJtmQaBzK4Zqw-780" vertex="1">
          <mxGeometry x="40" width="160" height="40" as="geometry">
            <mxRectangle width="160" height="40" as="alternateBounds" />
          </mxGeometry>
        </mxCell>
        <mxCell id="ZSzThWlPJtmQaBzK4Zqw-783" style="shape=partialRectangle;html=1;whiteSpace=wrap;connectable=0;strokeColor=inherit;overflow=hidden;fillColor=none;top=0;left=0;bottom=0;right=0;pointerEvents=1;" parent="ZSzThWlPJtmQaBzK4Zqw-780" vertex="1">
          <mxGeometry x="200" width="120" height="40" as="geometry">
            <mxRectangle width="120" height="40" as="alternateBounds" />
          </mxGeometry>
        </mxCell>
        <mxCell id="ZSzThWlPJtmQaBzK4Zqw-784" style="shape=partialRectangle;html=1;whiteSpace=wrap;connectable=0;strokeColor=inherit;overflow=hidden;fillColor=none;top=0;left=0;bottom=0;right=0;pointerEvents=1;" parent="ZSzThWlPJtmQaBzK4Zqw-780" vertex="1">
          <mxGeometry x="320" width="120" height="40" as="geometry">
            <mxRectangle width="120" height="40" as="alternateBounds" />
          </mxGeometry>
        </mxCell>
        <mxCell id="ZSzThWlPJtmQaBzK4Zqw-1214" style="shape=tableRow;horizontal=0;startSize=0;swimlaneHead=0;swimlaneBody=0;strokeColor=inherit;top=0;left=0;bottom=0;right=0;collapsible=0;dropTarget=0;fillColor=none;points=[[0,0.5],[1,0.5]];portConstraint=eastwest;" parent="ZSzThWlPJtmQaBzK4Zqw-724" vertex="1">
          <mxGeometry y="240" width="440" height="40" as="geometry" />
        </mxCell>
        <mxCell id="ZSzThWlPJtmQaBzK4Zqw-1215" style="shape=partialRectangle;html=1;whiteSpace=wrap;connectable=0;strokeColor=inherit;overflow=hidden;fillColor=none;top=0;left=0;bottom=0;right=0;pointerEvents=1;" parent="ZSzThWlPJtmQaBzK4Zqw-1214" vertex="1">
          <mxGeometry width="40" height="40" as="geometry">
            <mxRectangle width="40" height="40" as="alternateBounds" />
          </mxGeometry>
        </mxCell>
        <mxCell id="ZSzThWlPJtmQaBzK4Zqw-1216" value="adress_1" style="shape=partialRectangle;html=1;whiteSpace=wrap;connectable=0;strokeColor=inherit;overflow=hidden;fillColor=none;top=0;left=0;bottom=0;right=0;pointerEvents=1;" parent="ZSzThWlPJtmQaBzK4Zqw-1214" vertex="1">
          <mxGeometry x="40" width="160" height="40" as="geometry">
            <mxRectangle width="160" height="40" as="alternateBounds" />
          </mxGeometry>
        </mxCell>
        <mxCell id="ZSzThWlPJtmQaBzK4Zqw-1217" style="shape=partialRectangle;html=1;whiteSpace=wrap;connectable=0;strokeColor=inherit;overflow=hidden;fillColor=none;top=0;left=0;bottom=0;right=0;pointerEvents=1;" parent="ZSzThWlPJtmQaBzK4Zqw-1214" vertex="1">
          <mxGeometry x="200" width="120" height="40" as="geometry">
            <mxRectangle width="120" height="40" as="alternateBounds" />
          </mxGeometry>
        </mxCell>
        <mxCell id="ZSzThWlPJtmQaBzK4Zqw-1218" style="shape=partialRectangle;html=1;whiteSpace=wrap;connectable=0;strokeColor=inherit;overflow=hidden;fillColor=none;top=0;left=0;bottom=0;right=0;pointerEvents=1;" parent="ZSzThWlPJtmQaBzK4Zqw-1214" vertex="1">
          <mxGeometry x="320" width="120" height="40" as="geometry">
            <mxRectangle width="120" height="40" as="alternateBounds" />
          </mxGeometry>
        </mxCell>
        <mxCell id="ZSzThWlPJtmQaBzK4Zqw-1224" style="shape=tableRow;horizontal=0;startSize=0;swimlaneHead=0;swimlaneBody=0;strokeColor=inherit;top=0;left=0;bottom=0;right=0;collapsible=0;dropTarget=0;fillColor=none;points=[[0,0.5],[1,0.5]];portConstraint=eastwest;" parent="ZSzThWlPJtmQaBzK4Zqw-724" vertex="1">
          <mxGeometry y="280" width="440" height="40" as="geometry" />
        </mxCell>
        <mxCell id="ZSzThWlPJtmQaBzK4Zqw-1225" style="shape=partialRectangle;html=1;whiteSpace=wrap;connectable=0;strokeColor=inherit;overflow=hidden;fillColor=none;top=0;left=0;bottom=0;right=0;pointerEvents=1;" parent="ZSzThWlPJtmQaBzK4Zqw-1224" vertex="1">
          <mxGeometry width="40" height="40" as="geometry">
            <mxRectangle width="40" height="40" as="alternateBounds" />
          </mxGeometry>
        </mxCell>
        <mxCell id="ZSzThWlPJtmQaBzK4Zqw-1226" value="adress_2" style="shape=partialRectangle;html=1;whiteSpace=wrap;connectable=0;strokeColor=inherit;overflow=hidden;fillColor=none;top=0;left=0;bottom=0;right=0;pointerEvents=1;" parent="ZSzThWlPJtmQaBzK4Zqw-1224" vertex="1">
          <mxGeometry x="40" width="160" height="40" as="geometry">
            <mxRectangle width="160" height="40" as="alternateBounds" />
          </mxGeometry>
        </mxCell>
        <mxCell id="ZSzThWlPJtmQaBzK4Zqw-1227" style="shape=partialRectangle;html=1;whiteSpace=wrap;connectable=0;strokeColor=inherit;overflow=hidden;fillColor=none;top=0;left=0;bottom=0;right=0;pointerEvents=1;" parent="ZSzThWlPJtmQaBzK4Zqw-1224" vertex="1">
          <mxGeometry x="200" width="120" height="40" as="geometry">
            <mxRectangle width="120" height="40" as="alternateBounds" />
          </mxGeometry>
        </mxCell>
        <mxCell id="ZSzThWlPJtmQaBzK4Zqw-1228" style="shape=partialRectangle;html=1;whiteSpace=wrap;connectable=0;strokeColor=inherit;overflow=hidden;fillColor=none;top=0;left=0;bottom=0;right=0;pointerEvents=1;" parent="ZSzThWlPJtmQaBzK4Zqw-1224" vertex="1">
          <mxGeometry x="320" width="120" height="40" as="geometry">
            <mxRectangle width="120" height="40" as="alternateBounds" />
          </mxGeometry>
        </mxCell>
        <mxCell id="ZSzThWlPJtmQaBzK4Zqw-1219" style="shape=tableRow;horizontal=0;startSize=0;swimlaneHead=0;swimlaneBody=0;strokeColor=inherit;top=0;left=0;bottom=0;right=0;collapsible=0;dropTarget=0;fillColor=none;points=[[0,0.5],[1,0.5]];portConstraint=eastwest;" parent="ZSzThWlPJtmQaBzK4Zqw-724" vertex="1">
          <mxGeometry y="320" width="440" height="40" as="geometry" />
        </mxCell>
        <mxCell id="ZSzThWlPJtmQaBzK4Zqw-1220" style="shape=partialRectangle;html=1;whiteSpace=wrap;connectable=0;strokeColor=inherit;overflow=hidden;fillColor=none;top=0;left=0;bottom=0;right=0;pointerEvents=1;" parent="ZSzThWlPJtmQaBzK4Zqw-1219" vertex="1">
          <mxGeometry width="40" height="40" as="geometry">
            <mxRectangle width="40" height="40" as="alternateBounds" />
          </mxGeometry>
        </mxCell>
        <mxCell id="ZSzThWlPJtmQaBzK4Zqw-1221" value="adress_3" style="shape=partialRectangle;html=1;whiteSpace=wrap;connectable=0;strokeColor=inherit;overflow=hidden;fillColor=none;top=0;left=0;bottom=0;right=0;pointerEvents=1;" parent="ZSzThWlPJtmQaBzK4Zqw-1219" vertex="1">
          <mxGeometry x="40" width="160" height="40" as="geometry">
            <mxRectangle width="160" height="40" as="alternateBounds" />
          </mxGeometry>
        </mxCell>
        <mxCell id="ZSzThWlPJtmQaBzK4Zqw-1222" style="shape=partialRectangle;html=1;whiteSpace=wrap;connectable=0;strokeColor=inherit;overflow=hidden;fillColor=none;top=0;left=0;bottom=0;right=0;pointerEvents=1;" parent="ZSzThWlPJtmQaBzK4Zqw-1219" vertex="1">
          <mxGeometry x="200" width="120" height="40" as="geometry">
            <mxRectangle width="120" height="40" as="alternateBounds" />
          </mxGeometry>
        </mxCell>
        <mxCell id="ZSzThWlPJtmQaBzK4Zqw-1223" style="shape=partialRectangle;html=1;whiteSpace=wrap;connectable=0;strokeColor=inherit;overflow=hidden;fillColor=none;top=0;left=0;bottom=0;right=0;pointerEvents=1;" parent="ZSzThWlPJtmQaBzK4Zqw-1219" vertex="1">
          <mxGeometry x="320" width="120" height="40" as="geometry">
            <mxRectangle width="120" height="40" as="alternateBounds" />
          </mxGeometry>
        </mxCell>
        <mxCell id="ZSzThWlPJtmQaBzK4Zqw-1229" style="shape=tableRow;horizontal=0;startSize=0;swimlaneHead=0;swimlaneBody=0;strokeColor=inherit;top=0;left=0;bottom=0;right=0;collapsible=0;dropTarget=0;fillColor=none;points=[[0,0.5],[1,0.5]];portConstraint=eastwest;" parent="ZSzThWlPJtmQaBzK4Zqw-724" vertex="1">
          <mxGeometry y="360" width="440" height="40" as="geometry" />
        </mxCell>
        <mxCell id="ZSzThWlPJtmQaBzK4Zqw-1230" style="shape=partialRectangle;html=1;whiteSpace=wrap;connectable=0;strokeColor=inherit;overflow=hidden;fillColor=none;top=0;left=0;bottom=0;right=0;pointerEvents=1;" parent="ZSzThWlPJtmQaBzK4Zqw-1229" vertex="1">
          <mxGeometry width="40" height="40" as="geometry">
            <mxRectangle width="40" height="40" as="alternateBounds" />
          </mxGeometry>
        </mxCell>
        <mxCell id="ZSzThWlPJtmQaBzK4Zqw-1231" value="dob" style="shape=partialRectangle;html=1;whiteSpace=wrap;connectable=0;strokeColor=inherit;overflow=hidden;fillColor=none;top=0;left=0;bottom=0;right=0;pointerEvents=1;" parent="ZSzThWlPJtmQaBzK4Zqw-1229" vertex="1">
          <mxGeometry x="40" width="160" height="40" as="geometry">
            <mxRectangle width="160" height="40" as="alternateBounds" />
          </mxGeometry>
        </mxCell>
        <mxCell id="ZSzThWlPJtmQaBzK4Zqw-1232" style="shape=partialRectangle;html=1;whiteSpace=wrap;connectable=0;strokeColor=inherit;overflow=hidden;fillColor=none;top=0;left=0;bottom=0;right=0;pointerEvents=1;" parent="ZSzThWlPJtmQaBzK4Zqw-1229" vertex="1">
          <mxGeometry x="200" width="120" height="40" as="geometry">
            <mxRectangle width="120" height="40" as="alternateBounds" />
          </mxGeometry>
        </mxCell>
        <mxCell id="ZSzThWlPJtmQaBzK4Zqw-1233" style="shape=partialRectangle;html=1;whiteSpace=wrap;connectable=0;strokeColor=inherit;overflow=hidden;fillColor=none;top=0;left=0;bottom=0;right=0;pointerEvents=1;" parent="ZSzThWlPJtmQaBzK4Zqw-1229" vertex="1">
          <mxGeometry x="320" width="120" height="40" as="geometry">
            <mxRectangle width="120" height="40" as="alternateBounds" />
          </mxGeometry>
        </mxCell>
        <mxCell id="ZSzThWlPJtmQaBzK4Zqw-785" style="shape=tableRow;horizontal=0;startSize=0;swimlaneHead=0;swimlaneBody=0;strokeColor=inherit;top=0;left=0;bottom=0;right=0;collapsible=0;dropTarget=0;fillColor=none;points=[[0,0.5],[1,0.5]];portConstraint=eastwest;" parent="ZSzThWlPJtmQaBzK4Zqw-724" vertex="1">
          <mxGeometry y="400" width="440" height="40" as="geometry" />
        </mxCell>
        <mxCell id="ZSzThWlPJtmQaBzK4Zqw-786" style="shape=partialRectangle;html=1;whiteSpace=wrap;connectable=0;strokeColor=inherit;overflow=hidden;fillColor=none;top=0;left=0;bottom=0;right=0;pointerEvents=1;" parent="ZSzThWlPJtmQaBzK4Zqw-785" vertex="1">
          <mxGeometry width="40" height="40" as="geometry">
            <mxRectangle width="40" height="40" as="alternateBounds" />
          </mxGeometry>
        </mxCell>
        <mxCell id="ZSzThWlPJtmQaBzK4Zqw-787" value="description" style="shape=partialRectangle;html=1;whiteSpace=wrap;connectable=0;strokeColor=inherit;overflow=hidden;fillColor=none;top=0;left=0;bottom=0;right=0;pointerEvents=1;" parent="ZSzThWlPJtmQaBzK4Zqw-785" vertex="1">
          <mxGeometry x="40" width="160" height="40" as="geometry">
            <mxRectangle width="160" height="40" as="alternateBounds" />
          </mxGeometry>
        </mxCell>
        <mxCell id="ZSzThWlPJtmQaBzK4Zqw-788" style="shape=partialRectangle;html=1;whiteSpace=wrap;connectable=0;strokeColor=inherit;overflow=hidden;fillColor=none;top=0;left=0;bottom=0;right=0;pointerEvents=1;" parent="ZSzThWlPJtmQaBzK4Zqw-785" vertex="1">
          <mxGeometry x="200" width="120" height="40" as="geometry">
            <mxRectangle width="120" height="40" as="alternateBounds" />
          </mxGeometry>
        </mxCell>
        <mxCell id="ZSzThWlPJtmQaBzK4Zqw-789" style="shape=partialRectangle;html=1;whiteSpace=wrap;connectable=0;strokeColor=inherit;overflow=hidden;fillColor=none;top=0;left=0;bottom=0;right=0;pointerEvents=1;" parent="ZSzThWlPJtmQaBzK4Zqw-785" vertex="1">
          <mxGeometry x="320" width="120" height="40" as="geometry">
            <mxRectangle width="120" height="40" as="alternateBounds" />
          </mxGeometry>
        </mxCell>
        <mxCell id="ZSzThWlPJtmQaBzK4Zqw-790" style="shape=tableRow;horizontal=0;startSize=0;swimlaneHead=0;swimlaneBody=0;strokeColor=inherit;top=0;left=0;bottom=0;right=0;collapsible=0;dropTarget=0;fillColor=none;points=[[0,0.5],[1,0.5]];portConstraint=eastwest;" parent="ZSzThWlPJtmQaBzK4Zqw-724" vertex="1">
          <mxGeometry y="440" width="440" height="40" as="geometry" />
        </mxCell>
        <mxCell id="ZSzThWlPJtmQaBzK4Zqw-791" style="shape=partialRectangle;html=1;whiteSpace=wrap;connectable=0;strokeColor=inherit;overflow=hidden;fillColor=none;top=0;left=0;bottom=0;right=0;pointerEvents=1;" parent="ZSzThWlPJtmQaBzK4Zqw-790" vertex="1">
          <mxGeometry width="40" height="40" as="geometry">
            <mxRectangle width="40" height="40" as="alternateBounds" />
          </mxGeometry>
        </mxCell>
        <mxCell id="ZSzThWlPJtmQaBzK4Zqw-792" value="role_id" style="shape=partialRectangle;html=1;whiteSpace=wrap;connectable=0;strokeColor=inherit;overflow=hidden;fillColor=none;top=0;left=0;bottom=0;right=0;pointerEvents=1;" parent="ZSzThWlPJtmQaBzK4Zqw-790" vertex="1">
          <mxGeometry x="40" width="160" height="40" as="geometry">
            <mxRectangle width="160" height="40" as="alternateBounds" />
          </mxGeometry>
        </mxCell>
        <mxCell id="ZSzThWlPJtmQaBzK4Zqw-793" style="shape=partialRectangle;html=1;whiteSpace=wrap;connectable=0;strokeColor=inherit;overflow=hidden;fillColor=none;top=0;left=0;bottom=0;right=0;pointerEvents=1;" parent="ZSzThWlPJtmQaBzK4Zqw-790" vertex="1">
          <mxGeometry x="200" width="120" height="40" as="geometry">
            <mxRectangle width="120" height="40" as="alternateBounds" />
          </mxGeometry>
        </mxCell>
        <mxCell id="ZSzThWlPJtmQaBzK4Zqw-794" style="shape=partialRectangle;html=1;whiteSpace=wrap;connectable=0;strokeColor=inherit;overflow=hidden;fillColor=none;top=0;left=0;bottom=0;right=0;pointerEvents=1;" parent="ZSzThWlPJtmQaBzK4Zqw-790" vertex="1">
          <mxGeometry x="320" width="120" height="40" as="geometry">
            <mxRectangle width="120" height="40" as="alternateBounds" />
          </mxGeometry>
        </mxCell>
        <mxCell id="ZSzThWlPJtmQaBzK4Zqw-800" style="shape=tableRow;horizontal=0;startSize=0;swimlaneHead=0;swimlaneBody=0;strokeColor=inherit;top=0;left=0;bottom=0;right=0;collapsible=0;dropTarget=0;fillColor=none;points=[[0,0.5],[1,0.5]];portConstraint=eastwest;" parent="ZSzThWlPJtmQaBzK4Zqw-724" vertex="1">
          <mxGeometry y="480" width="440" height="40" as="geometry" />
        </mxCell>
        <mxCell id="ZSzThWlPJtmQaBzK4Zqw-801" style="shape=partialRectangle;html=1;whiteSpace=wrap;connectable=0;strokeColor=inherit;overflow=hidden;fillColor=none;top=0;left=0;bottom=0;right=0;pointerEvents=1;" parent="ZSzThWlPJtmQaBzK4Zqw-800" vertex="1">
          <mxGeometry width="40" height="40" as="geometry">
            <mxRectangle width="40" height="40" as="alternateBounds" />
          </mxGeometry>
        </mxCell>
        <mxCell id="ZSzThWlPJtmQaBzK4Zqw-802" value="created_at" style="shape=partialRectangle;html=1;whiteSpace=wrap;connectable=0;strokeColor=inherit;overflow=hidden;fillColor=none;top=0;left=0;bottom=0;right=0;pointerEvents=1;" parent="ZSzThWlPJtmQaBzK4Zqw-800" vertex="1">
          <mxGeometry x="40" width="160" height="40" as="geometry">
            <mxRectangle width="160" height="40" as="alternateBounds" />
          </mxGeometry>
        </mxCell>
        <mxCell id="ZSzThWlPJtmQaBzK4Zqw-803" style="shape=partialRectangle;html=1;whiteSpace=wrap;connectable=0;strokeColor=inherit;overflow=hidden;fillColor=none;top=0;left=0;bottom=0;right=0;pointerEvents=1;" parent="ZSzThWlPJtmQaBzK4Zqw-800" vertex="1">
          <mxGeometry x="200" width="120" height="40" as="geometry">
            <mxRectangle width="120" height="40" as="alternateBounds" />
          </mxGeometry>
        </mxCell>
        <mxCell id="ZSzThWlPJtmQaBzK4Zqw-804" style="shape=partialRectangle;html=1;whiteSpace=wrap;connectable=0;strokeColor=inherit;overflow=hidden;fillColor=none;top=0;left=0;bottom=0;right=0;pointerEvents=1;" parent="ZSzThWlPJtmQaBzK4Zqw-800" vertex="1">
          <mxGeometry x="320" width="120" height="40" as="geometry">
            <mxRectangle width="120" height="40" as="alternateBounds" />
          </mxGeometry>
        </mxCell>
        <mxCell id="ZSzThWlPJtmQaBzK4Zqw-815" style="shape=tableRow;horizontal=0;startSize=0;swimlaneHead=0;swimlaneBody=0;strokeColor=inherit;top=0;left=0;bottom=0;right=0;collapsible=0;dropTarget=0;fillColor=none;points=[[0,0.5],[1,0.5]];portConstraint=eastwest;" parent="ZSzThWlPJtmQaBzK4Zqw-724" vertex="1">
          <mxGeometry y="520" width="440" height="40" as="geometry" />
        </mxCell>
        <mxCell id="ZSzThWlPJtmQaBzK4Zqw-816" style="shape=partialRectangle;html=1;whiteSpace=wrap;connectable=0;strokeColor=inherit;overflow=hidden;fillColor=none;top=0;left=0;bottom=0;right=0;pointerEvents=1;" parent="ZSzThWlPJtmQaBzK4Zqw-815" vertex="1">
          <mxGeometry width="40" height="40" as="geometry">
            <mxRectangle width="40" height="40" as="alternateBounds" />
          </mxGeometry>
        </mxCell>
        <mxCell id="ZSzThWlPJtmQaBzK4Zqw-817" value="created_by" style="shape=partialRectangle;html=1;whiteSpace=wrap;connectable=0;strokeColor=inherit;overflow=hidden;fillColor=none;top=0;left=0;bottom=0;right=0;pointerEvents=1;" parent="ZSzThWlPJtmQaBzK4Zqw-815" vertex="1">
          <mxGeometry x="40" width="160" height="40" as="geometry">
            <mxRectangle width="160" height="40" as="alternateBounds" />
          </mxGeometry>
        </mxCell>
        <mxCell id="ZSzThWlPJtmQaBzK4Zqw-818" style="shape=partialRectangle;html=1;whiteSpace=wrap;connectable=0;strokeColor=inherit;overflow=hidden;fillColor=none;top=0;left=0;bottom=0;right=0;pointerEvents=1;" parent="ZSzThWlPJtmQaBzK4Zqw-815" vertex="1">
          <mxGeometry x="200" width="120" height="40" as="geometry">
            <mxRectangle width="120" height="40" as="alternateBounds" />
          </mxGeometry>
        </mxCell>
        <mxCell id="ZSzThWlPJtmQaBzK4Zqw-819" style="shape=partialRectangle;html=1;whiteSpace=wrap;connectable=0;strokeColor=inherit;overflow=hidden;fillColor=none;top=0;left=0;bottom=0;right=0;pointerEvents=1;" parent="ZSzThWlPJtmQaBzK4Zqw-815" vertex="1">
          <mxGeometry x="320" width="120" height="40" as="geometry">
            <mxRectangle width="120" height="40" as="alternateBounds" />
          </mxGeometry>
        </mxCell>
        <mxCell id="ZSzThWlPJtmQaBzK4Zqw-810" style="shape=tableRow;horizontal=0;startSize=0;swimlaneHead=0;swimlaneBody=0;strokeColor=inherit;top=0;left=0;bottom=0;right=0;collapsible=0;dropTarget=0;fillColor=none;points=[[0,0.5],[1,0.5]];portConstraint=eastwest;" parent="ZSzThWlPJtmQaBzK4Zqw-724" vertex="1">
          <mxGeometry y="560" width="440" height="40" as="geometry" />
        </mxCell>
        <mxCell id="ZSzThWlPJtmQaBzK4Zqw-811" style="shape=partialRectangle;html=1;whiteSpace=wrap;connectable=0;strokeColor=inherit;overflow=hidden;fillColor=none;top=0;left=0;bottom=0;right=0;pointerEvents=1;" parent="ZSzThWlPJtmQaBzK4Zqw-810" vertex="1">
          <mxGeometry width="40" height="40" as="geometry">
            <mxRectangle width="40" height="40" as="alternateBounds" />
          </mxGeometry>
        </mxCell>
        <mxCell id="ZSzThWlPJtmQaBzK4Zqw-812" value="updated_at" style="shape=partialRectangle;html=1;whiteSpace=wrap;connectable=0;strokeColor=inherit;overflow=hidden;fillColor=none;top=0;left=0;bottom=0;right=0;pointerEvents=1;" parent="ZSzThWlPJtmQaBzK4Zqw-810" vertex="1">
          <mxGeometry x="40" width="160" height="40" as="geometry">
            <mxRectangle width="160" height="40" as="alternateBounds" />
          </mxGeometry>
        </mxCell>
        <mxCell id="ZSzThWlPJtmQaBzK4Zqw-813" style="shape=partialRectangle;html=1;whiteSpace=wrap;connectable=0;strokeColor=inherit;overflow=hidden;fillColor=none;top=0;left=0;bottom=0;right=0;pointerEvents=1;" parent="ZSzThWlPJtmQaBzK4Zqw-810" vertex="1">
          <mxGeometry x="200" width="120" height="40" as="geometry">
            <mxRectangle width="120" height="40" as="alternateBounds" />
          </mxGeometry>
        </mxCell>
        <mxCell id="ZSzThWlPJtmQaBzK4Zqw-814" style="shape=partialRectangle;html=1;whiteSpace=wrap;connectable=0;strokeColor=inherit;overflow=hidden;fillColor=none;top=0;left=0;bottom=0;right=0;pointerEvents=1;" parent="ZSzThWlPJtmQaBzK4Zqw-810" vertex="1">
          <mxGeometry x="320" width="120" height="40" as="geometry">
            <mxRectangle width="120" height="40" as="alternateBounds" />
          </mxGeometry>
        </mxCell>
        <mxCell id="ZSzThWlPJtmQaBzK4Zqw-805" style="shape=tableRow;horizontal=0;startSize=0;swimlaneHead=0;swimlaneBody=0;strokeColor=inherit;top=0;left=0;bottom=0;right=0;collapsible=0;dropTarget=0;fillColor=none;points=[[0,0.5],[1,0.5]];portConstraint=eastwest;" parent="ZSzThWlPJtmQaBzK4Zqw-724" vertex="1">
          <mxGeometry y="600" width="440" height="40" as="geometry" />
        </mxCell>
        <mxCell id="ZSzThWlPJtmQaBzK4Zqw-806" style="shape=partialRectangle;html=1;whiteSpace=wrap;connectable=0;strokeColor=inherit;overflow=hidden;fillColor=none;top=0;left=0;bottom=0;right=0;pointerEvents=1;" parent="ZSzThWlPJtmQaBzK4Zqw-805" vertex="1">
          <mxGeometry width="40" height="40" as="geometry">
            <mxRectangle width="40" height="40" as="alternateBounds" />
          </mxGeometry>
        </mxCell>
        <mxCell id="ZSzThWlPJtmQaBzK4Zqw-807" value="updated_by" style="shape=partialRectangle;html=1;whiteSpace=wrap;connectable=0;strokeColor=inherit;overflow=hidden;fillColor=none;top=0;left=0;bottom=0;right=0;pointerEvents=1;" parent="ZSzThWlPJtmQaBzK4Zqw-805" vertex="1">
          <mxGeometry x="40" width="160" height="40" as="geometry">
            <mxRectangle width="160" height="40" as="alternateBounds" />
          </mxGeometry>
        </mxCell>
        <mxCell id="ZSzThWlPJtmQaBzK4Zqw-808" style="shape=partialRectangle;html=1;whiteSpace=wrap;connectable=0;strokeColor=inherit;overflow=hidden;fillColor=none;top=0;left=0;bottom=0;right=0;pointerEvents=1;" parent="ZSzThWlPJtmQaBzK4Zqw-805" vertex="1">
          <mxGeometry x="200" width="120" height="40" as="geometry">
            <mxRectangle width="120" height="40" as="alternateBounds" />
          </mxGeometry>
        </mxCell>
        <mxCell id="ZSzThWlPJtmQaBzK4Zqw-809" style="shape=partialRectangle;html=1;whiteSpace=wrap;connectable=0;strokeColor=inherit;overflow=hidden;fillColor=none;top=0;left=0;bottom=0;right=0;pointerEvents=1;" parent="ZSzThWlPJtmQaBzK4Zqw-805" vertex="1">
          <mxGeometry x="320" width="120" height="40" as="geometry">
            <mxRectangle width="120" height="40" as="alternateBounds" />
          </mxGeometry>
        </mxCell>
        <mxCell id="ZSzThWlPJtmQaBzK4Zqw-820" style="shape=tableRow;horizontal=0;startSize=0;swimlaneHead=0;swimlaneBody=0;strokeColor=inherit;top=0;left=0;bottom=0;right=0;collapsible=0;dropTarget=0;fillColor=none;points=[[0,0.5],[1,0.5]];portConstraint=eastwest;" parent="ZSzThWlPJtmQaBzK4Zqw-724" vertex="1">
          <mxGeometry y="640" width="440" height="40" as="geometry" />
        </mxCell>
        <mxCell id="ZSzThWlPJtmQaBzK4Zqw-821" style="shape=partialRectangle;html=1;whiteSpace=wrap;connectable=0;strokeColor=inherit;overflow=hidden;fillColor=none;top=0;left=0;bottom=0;right=0;pointerEvents=1;" parent="ZSzThWlPJtmQaBzK4Zqw-820" vertex="1">
          <mxGeometry width="40" height="40" as="geometry">
            <mxRectangle width="40" height="40" as="alternateBounds" />
          </mxGeometry>
        </mxCell>
        <mxCell id="ZSzThWlPJtmQaBzK4Zqw-822" value="is_active" style="shape=partialRectangle;html=1;whiteSpace=wrap;connectable=0;strokeColor=inherit;overflow=hidden;fillColor=none;top=0;left=0;bottom=0;right=0;pointerEvents=1;" parent="ZSzThWlPJtmQaBzK4Zqw-820" vertex="1">
          <mxGeometry x="40" width="160" height="40" as="geometry">
            <mxRectangle width="160" height="40" as="alternateBounds" />
          </mxGeometry>
        </mxCell>
        <mxCell id="ZSzThWlPJtmQaBzK4Zqw-823" style="shape=partialRectangle;html=1;whiteSpace=wrap;connectable=0;strokeColor=inherit;overflow=hidden;fillColor=none;top=0;left=0;bottom=0;right=0;pointerEvents=1;" parent="ZSzThWlPJtmQaBzK4Zqw-820" vertex="1">
          <mxGeometry x="200" width="120" height="40" as="geometry">
            <mxRectangle width="120" height="40" as="alternateBounds" />
          </mxGeometry>
        </mxCell>
        <mxCell id="ZSzThWlPJtmQaBzK4Zqw-824" style="shape=partialRectangle;html=1;whiteSpace=wrap;connectable=0;strokeColor=inherit;overflow=hidden;fillColor=none;top=0;left=0;bottom=0;right=0;pointerEvents=1;" parent="ZSzThWlPJtmQaBzK4Zqw-820" vertex="1">
          <mxGeometry x="320" width="120" height="40" as="geometry">
            <mxRectangle width="120" height="40" as="alternateBounds" />
          </mxGeometry>
        </mxCell>
        <mxCell id="ZSzThWlPJtmQaBzK4Zqw-825" style="shape=tableRow;horizontal=0;startSize=0;swimlaneHead=0;swimlaneBody=0;strokeColor=inherit;top=0;left=0;bottom=0;right=0;collapsible=0;dropTarget=0;fillColor=none;points=[[0,0.5],[1,0.5]];portConstraint=eastwest;" parent="ZSzThWlPJtmQaBzK4Zqw-724" vertex="1">
          <mxGeometry y="680" width="440" height="40" as="geometry" />
        </mxCell>
        <mxCell id="ZSzThWlPJtmQaBzK4Zqw-826" style="shape=partialRectangle;html=1;whiteSpace=wrap;connectable=0;strokeColor=inherit;overflow=hidden;fillColor=none;top=0;left=0;bottom=0;right=0;pointerEvents=1;" parent="ZSzThWlPJtmQaBzK4Zqw-825" vertex="1">
          <mxGeometry width="40" height="40" as="geometry">
            <mxRectangle width="40" height="40" as="alternateBounds" />
          </mxGeometry>
        </mxCell>
        <mxCell id="ZSzThWlPJtmQaBzK4Zqw-827" value="is_deleted" style="shape=partialRectangle;html=1;whiteSpace=wrap;connectable=0;strokeColor=inherit;overflow=hidden;fillColor=none;top=0;left=0;bottom=0;right=0;pointerEvents=1;" parent="ZSzThWlPJtmQaBzK4Zqw-825" vertex="1">
          <mxGeometry x="40" width="160" height="40" as="geometry">
            <mxRectangle width="160" height="40" as="alternateBounds" />
          </mxGeometry>
        </mxCell>
        <mxCell id="ZSzThWlPJtmQaBzK4Zqw-828" style="shape=partialRectangle;html=1;whiteSpace=wrap;connectable=0;strokeColor=inherit;overflow=hidden;fillColor=none;top=0;left=0;bottom=0;right=0;pointerEvents=1;" parent="ZSzThWlPJtmQaBzK4Zqw-825" vertex="1">
          <mxGeometry x="200" width="120" height="40" as="geometry">
            <mxRectangle width="120" height="40" as="alternateBounds" />
          </mxGeometry>
        </mxCell>
        <mxCell id="ZSzThWlPJtmQaBzK4Zqw-829" style="shape=partialRectangle;html=1;whiteSpace=wrap;connectable=0;strokeColor=inherit;overflow=hidden;fillColor=none;top=0;left=0;bottom=0;right=0;pointerEvents=1;" parent="ZSzThWlPJtmQaBzK4Zqw-825" vertex="1">
          <mxGeometry x="320" width="120" height="40" as="geometry">
            <mxRectangle width="120" height="40" as="alternateBounds" />
          </mxGeometry>
        </mxCell>
        <mxCell id="ZSzThWlPJtmQaBzK4Zqw-830" value="" style="shape=table;startSize=0;container=1;collapsible=0;childLayout=tableLayout;" parent="1" vertex="1">
          <mxGeometry x="-480" y="1360" width="440" height="359.99999999999955" as="geometry" />
        </mxCell>
        <mxCell id="ZSzThWlPJtmQaBzK4Zqw-831" value="" style="shape=tableRow;horizontal=0;startSize=0;swimlaneHead=0;swimlaneBody=0;strokeColor=inherit;top=0;left=0;bottom=0;right=0;collapsible=0;dropTarget=0;fillColor=none;points=[[0,0.5],[1,0.5]];portConstraint=eastwest;" parent="ZSzThWlPJtmQaBzK4Zqw-830" vertex="1">
          <mxGeometry width="440" height="40" as="geometry" />
        </mxCell>
        <mxCell id="ZSzThWlPJtmQaBzK4Zqw-832" value="&lt;b&gt;sys_role&lt;/b&gt;" style="shape=partialRectangle;html=1;whiteSpace=wrap;connectable=0;strokeColor=inherit;overflow=hidden;fillColor=none;top=0;left=0;bottom=0;right=0;pointerEvents=1;rowspan=1;colspan=2;" parent="ZSzThWlPJtmQaBzK4Zqw-831" vertex="1">
          <mxGeometry width="200" height="40" as="geometry">
            <mxRectangle width="40" height="40" as="alternateBounds" />
          </mxGeometry>
        </mxCell>
        <mxCell id="ZSzThWlPJtmQaBzK4Zqw-833" value="" style="shape=partialRectangle;html=1;whiteSpace=wrap;connectable=0;strokeColor=inherit;overflow=hidden;fillColor=none;top=0;left=0;bottom=0;right=0;pointerEvents=1;" parent="ZSzThWlPJtmQaBzK4Zqw-831" vertex="1" visible="0">
          <mxGeometry x="40" width="160" height="40" as="geometry">
            <mxRectangle width="160" height="40" as="alternateBounds" />
          </mxGeometry>
        </mxCell>
        <mxCell id="ZSzThWlPJtmQaBzK4Zqw-834" value="TYPE" style="shape=partialRectangle;html=1;whiteSpace=wrap;connectable=0;strokeColor=inherit;overflow=hidden;fillColor=none;top=0;left=0;bottom=0;right=0;pointerEvents=1;" parent="ZSzThWlPJtmQaBzK4Zqw-831" vertex="1">
          <mxGeometry x="200" width="120" height="40" as="geometry">
            <mxRectangle width="120" height="40" as="alternateBounds" />
          </mxGeometry>
        </mxCell>
        <mxCell id="ZSzThWlPJtmQaBzK4Zqw-835" value="DETAILS" style="shape=partialRectangle;html=1;whiteSpace=wrap;connectable=0;strokeColor=inherit;overflow=hidden;fillColor=none;top=0;left=0;bottom=0;right=0;pointerEvents=1;" parent="ZSzThWlPJtmQaBzK4Zqw-831" vertex="1">
          <mxGeometry x="320" width="120" height="40" as="geometry">
            <mxRectangle width="120" height="40" as="alternateBounds" />
          </mxGeometry>
        </mxCell>
        <mxCell id="ZSzThWlPJtmQaBzK4Zqw-836" value="" style="shape=tableRow;horizontal=0;startSize=0;swimlaneHead=0;swimlaneBody=0;strokeColor=inherit;top=0;left=0;bottom=0;right=0;collapsible=0;dropTarget=0;fillColor=none;points=[[0,0.5],[1,0.5]];portConstraint=eastwest;" parent="ZSzThWlPJtmQaBzK4Zqw-830" vertex="1">
          <mxGeometry y="40" width="440" height="40" as="geometry" />
        </mxCell>
        <mxCell id="ZSzThWlPJtmQaBzK4Zqw-837" value="PK" style="shape=partialRectangle;html=1;whiteSpace=wrap;connectable=0;strokeColor=inherit;overflow=hidden;fillColor=none;top=0;left=0;bottom=0;right=0;pointerEvents=1;" parent="ZSzThWlPJtmQaBzK4Zqw-836" vertex="1">
          <mxGeometry width="40" height="40" as="geometry">
            <mxRectangle width="40" height="40" as="alternateBounds" />
          </mxGeometry>
        </mxCell>
        <mxCell id="ZSzThWlPJtmQaBzK4Zqw-838" value="role_id" style="shape=partialRectangle;html=1;whiteSpace=wrap;connectable=0;strokeColor=inherit;overflow=hidden;fillColor=none;top=0;left=0;bottom=0;right=0;pointerEvents=1;" parent="ZSzThWlPJtmQaBzK4Zqw-836" vertex="1">
          <mxGeometry x="40" width="160" height="40" as="geometry">
            <mxRectangle width="160" height="40" as="alternateBounds" />
          </mxGeometry>
        </mxCell>
        <mxCell id="ZSzThWlPJtmQaBzK4Zqw-839" value="" style="shape=partialRectangle;html=1;whiteSpace=wrap;connectable=0;strokeColor=inherit;overflow=hidden;fillColor=none;top=0;left=0;bottom=0;right=0;pointerEvents=1;" parent="ZSzThWlPJtmQaBzK4Zqw-836" vertex="1">
          <mxGeometry x="200" width="120" height="40" as="geometry">
            <mxRectangle width="120" height="40" as="alternateBounds" />
          </mxGeometry>
        </mxCell>
        <mxCell id="ZSzThWlPJtmQaBzK4Zqw-840" value="AUTO INCREMENT" style="shape=partialRectangle;html=1;whiteSpace=wrap;connectable=0;strokeColor=inherit;overflow=hidden;fillColor=none;top=0;left=0;bottom=0;right=0;pointerEvents=1;" parent="ZSzThWlPJtmQaBzK4Zqw-836" vertex="1">
          <mxGeometry x="320" width="120" height="40" as="geometry">
            <mxRectangle width="120" height="40" as="alternateBounds" />
          </mxGeometry>
        </mxCell>
        <mxCell id="ZSzThWlPJtmQaBzK4Zqw-841" value="" style="shape=tableRow;horizontal=0;startSize=0;swimlaneHead=0;swimlaneBody=0;strokeColor=inherit;top=0;left=0;bottom=0;right=0;collapsible=0;dropTarget=0;fillColor=none;points=[[0,0.5],[1,0.5]];portConstraint=eastwest;" parent="ZSzThWlPJtmQaBzK4Zqw-830" vertex="1">
          <mxGeometry y="80" width="440" height="40" as="geometry" />
        </mxCell>
        <mxCell id="ZSzThWlPJtmQaBzK4Zqw-842" value="" style="shape=partialRectangle;html=1;whiteSpace=wrap;connectable=0;strokeColor=inherit;overflow=hidden;fillColor=none;top=0;left=0;bottom=0;right=0;pointerEvents=1;" parent="ZSzThWlPJtmQaBzK4Zqw-841" vertex="1">
          <mxGeometry width="40" height="40" as="geometry">
            <mxRectangle width="40" height="40" as="alternateBounds" />
          </mxGeometry>
        </mxCell>
        <mxCell id="ZSzThWlPJtmQaBzK4Zqw-843" value="username" style="shape=partialRectangle;html=1;whiteSpace=wrap;connectable=0;strokeColor=inherit;overflow=hidden;fillColor=none;top=0;left=0;bottom=0;right=0;pointerEvents=1;" parent="ZSzThWlPJtmQaBzK4Zqw-841" vertex="1">
          <mxGeometry x="40" width="160" height="40" as="geometry">
            <mxRectangle width="160" height="40" as="alternateBounds" />
          </mxGeometry>
        </mxCell>
        <mxCell id="ZSzThWlPJtmQaBzK4Zqw-844" value="" style="shape=partialRectangle;html=1;whiteSpace=wrap;connectable=0;strokeColor=inherit;overflow=hidden;fillColor=none;top=0;left=0;bottom=0;right=0;pointerEvents=1;" parent="ZSzThWlPJtmQaBzK4Zqw-841" vertex="1">
          <mxGeometry x="200" width="120" height="40" as="geometry">
            <mxRectangle width="120" height="40" as="alternateBounds" />
          </mxGeometry>
        </mxCell>
        <mxCell id="ZSzThWlPJtmQaBzK4Zqw-845" value="" style="shape=partialRectangle;html=1;whiteSpace=wrap;connectable=0;strokeColor=inherit;overflow=hidden;fillColor=none;top=0;left=0;bottom=0;right=0;pointerEvents=1;" parent="ZSzThWlPJtmQaBzK4Zqw-841" vertex="1">
          <mxGeometry x="320" width="120" height="40" as="geometry">
            <mxRectangle width="120" height="40" as="alternateBounds" />
          </mxGeometry>
        </mxCell>
        <mxCell id="ZSzThWlPJtmQaBzK4Zqw-861" style="shape=tableRow;horizontal=0;startSize=0;swimlaneHead=0;swimlaneBody=0;strokeColor=inherit;top=0;left=0;bottom=0;right=0;collapsible=0;dropTarget=0;fillColor=none;points=[[0,0.5],[1,0.5]];portConstraint=eastwest;" parent="ZSzThWlPJtmQaBzK4Zqw-830" vertex="1">
          <mxGeometry y="120" width="440" height="40" as="geometry" />
        </mxCell>
        <mxCell id="ZSzThWlPJtmQaBzK4Zqw-862" style="shape=partialRectangle;html=1;whiteSpace=wrap;connectable=0;strokeColor=inherit;overflow=hidden;fillColor=none;top=0;left=0;bottom=0;right=0;pointerEvents=1;" parent="ZSzThWlPJtmQaBzK4Zqw-861" vertex="1">
          <mxGeometry width="40" height="40" as="geometry">
            <mxRectangle width="40" height="40" as="alternateBounds" />
          </mxGeometry>
        </mxCell>
        <mxCell id="ZSzThWlPJtmQaBzK4Zqw-863" value="description" style="shape=partialRectangle;html=1;whiteSpace=wrap;connectable=0;strokeColor=inherit;overflow=hidden;fillColor=none;top=0;left=0;bottom=0;right=0;pointerEvents=1;" parent="ZSzThWlPJtmQaBzK4Zqw-861" vertex="1">
          <mxGeometry x="40" width="160" height="40" as="geometry">
            <mxRectangle width="160" height="40" as="alternateBounds" />
          </mxGeometry>
        </mxCell>
        <mxCell id="ZSzThWlPJtmQaBzK4Zqw-864" style="shape=partialRectangle;html=1;whiteSpace=wrap;connectable=0;strokeColor=inherit;overflow=hidden;fillColor=none;top=0;left=0;bottom=0;right=0;pointerEvents=1;" parent="ZSzThWlPJtmQaBzK4Zqw-861" vertex="1">
          <mxGeometry x="200" width="120" height="40" as="geometry">
            <mxRectangle width="120" height="40" as="alternateBounds" />
          </mxGeometry>
        </mxCell>
        <mxCell id="ZSzThWlPJtmQaBzK4Zqw-865" style="shape=partialRectangle;html=1;whiteSpace=wrap;connectable=0;strokeColor=inherit;overflow=hidden;fillColor=none;top=0;left=0;bottom=0;right=0;pointerEvents=1;" parent="ZSzThWlPJtmQaBzK4Zqw-861" vertex="1">
          <mxGeometry x="320" width="120" height="40" as="geometry">
            <mxRectangle width="120" height="40" as="alternateBounds" />
          </mxGeometry>
        </mxCell>
        <mxCell id="ZSzThWlPJtmQaBzK4Zqw-871" style="shape=tableRow;horizontal=0;startSize=0;swimlaneHead=0;swimlaneBody=0;strokeColor=inherit;top=0;left=0;bottom=0;right=0;collapsible=0;dropTarget=0;fillColor=none;points=[[0,0.5],[1,0.5]];portConstraint=eastwest;" parent="ZSzThWlPJtmQaBzK4Zqw-830" vertex="1">
          <mxGeometry y="160" width="440" height="40" as="geometry" />
        </mxCell>
        <mxCell id="ZSzThWlPJtmQaBzK4Zqw-872" style="shape=partialRectangle;html=1;whiteSpace=wrap;connectable=0;strokeColor=inherit;overflow=hidden;fillColor=none;top=0;left=0;bottom=0;right=0;pointerEvents=1;" parent="ZSzThWlPJtmQaBzK4Zqw-871" vertex="1">
          <mxGeometry width="40" height="40" as="geometry">
            <mxRectangle width="40" height="40" as="alternateBounds" />
          </mxGeometry>
        </mxCell>
        <mxCell id="ZSzThWlPJtmQaBzK4Zqw-873" value="created_at" style="shape=partialRectangle;html=1;whiteSpace=wrap;connectable=0;strokeColor=inherit;overflow=hidden;fillColor=none;top=0;left=0;bottom=0;right=0;pointerEvents=1;" parent="ZSzThWlPJtmQaBzK4Zqw-871" vertex="1">
          <mxGeometry x="40" width="160" height="40" as="geometry">
            <mxRectangle width="160" height="40" as="alternateBounds" />
          </mxGeometry>
        </mxCell>
        <mxCell id="ZSzThWlPJtmQaBzK4Zqw-874" style="shape=partialRectangle;html=1;whiteSpace=wrap;connectable=0;strokeColor=inherit;overflow=hidden;fillColor=none;top=0;left=0;bottom=0;right=0;pointerEvents=1;" parent="ZSzThWlPJtmQaBzK4Zqw-871" vertex="1">
          <mxGeometry x="200" width="120" height="40" as="geometry">
            <mxRectangle width="120" height="40" as="alternateBounds" />
          </mxGeometry>
        </mxCell>
        <mxCell id="ZSzThWlPJtmQaBzK4Zqw-875" style="shape=partialRectangle;html=1;whiteSpace=wrap;connectable=0;strokeColor=inherit;overflow=hidden;fillColor=none;top=0;left=0;bottom=0;right=0;pointerEvents=1;" parent="ZSzThWlPJtmQaBzK4Zqw-871" vertex="1">
          <mxGeometry x="320" width="120" height="40" as="geometry">
            <mxRectangle width="120" height="40" as="alternateBounds" />
          </mxGeometry>
        </mxCell>
        <mxCell id="ZSzThWlPJtmQaBzK4Zqw-876" style="shape=tableRow;horizontal=0;startSize=0;swimlaneHead=0;swimlaneBody=0;strokeColor=inherit;top=0;left=0;bottom=0;right=0;collapsible=0;dropTarget=0;fillColor=none;points=[[0,0.5],[1,0.5]];portConstraint=eastwest;" parent="ZSzThWlPJtmQaBzK4Zqw-830" vertex="1">
          <mxGeometry y="200" width="440" height="40" as="geometry" />
        </mxCell>
        <mxCell id="ZSzThWlPJtmQaBzK4Zqw-877" style="shape=partialRectangle;html=1;whiteSpace=wrap;connectable=0;strokeColor=inherit;overflow=hidden;fillColor=none;top=0;left=0;bottom=0;right=0;pointerEvents=1;" parent="ZSzThWlPJtmQaBzK4Zqw-876" vertex="1">
          <mxGeometry width="40" height="40" as="geometry">
            <mxRectangle width="40" height="40" as="alternateBounds" />
          </mxGeometry>
        </mxCell>
        <mxCell id="ZSzThWlPJtmQaBzK4Zqw-878" value="created_by" style="shape=partialRectangle;html=1;whiteSpace=wrap;connectable=0;strokeColor=inherit;overflow=hidden;fillColor=none;top=0;left=0;bottom=0;right=0;pointerEvents=1;" parent="ZSzThWlPJtmQaBzK4Zqw-876" vertex="1">
          <mxGeometry x="40" width="160" height="40" as="geometry">
            <mxRectangle width="160" height="40" as="alternateBounds" />
          </mxGeometry>
        </mxCell>
        <mxCell id="ZSzThWlPJtmQaBzK4Zqw-879" style="shape=partialRectangle;html=1;whiteSpace=wrap;connectable=0;strokeColor=inherit;overflow=hidden;fillColor=none;top=0;left=0;bottom=0;right=0;pointerEvents=1;" parent="ZSzThWlPJtmQaBzK4Zqw-876" vertex="1">
          <mxGeometry x="200" width="120" height="40" as="geometry">
            <mxRectangle width="120" height="40" as="alternateBounds" />
          </mxGeometry>
        </mxCell>
        <mxCell id="ZSzThWlPJtmQaBzK4Zqw-880" style="shape=partialRectangle;html=1;whiteSpace=wrap;connectable=0;strokeColor=inherit;overflow=hidden;fillColor=none;top=0;left=0;bottom=0;right=0;pointerEvents=1;" parent="ZSzThWlPJtmQaBzK4Zqw-876" vertex="1">
          <mxGeometry x="320" width="120" height="40" as="geometry">
            <mxRectangle width="120" height="40" as="alternateBounds" />
          </mxGeometry>
        </mxCell>
        <mxCell id="ZSzThWlPJtmQaBzK4Zqw-881" style="shape=tableRow;horizontal=0;startSize=0;swimlaneHead=0;swimlaneBody=0;strokeColor=inherit;top=0;left=0;bottom=0;right=0;collapsible=0;dropTarget=0;fillColor=none;points=[[0,0.5],[1,0.5]];portConstraint=eastwest;" parent="ZSzThWlPJtmQaBzK4Zqw-830" vertex="1">
          <mxGeometry y="240" width="440" height="40" as="geometry" />
        </mxCell>
        <mxCell id="ZSzThWlPJtmQaBzK4Zqw-882" style="shape=partialRectangle;html=1;whiteSpace=wrap;connectable=0;strokeColor=inherit;overflow=hidden;fillColor=none;top=0;left=0;bottom=0;right=0;pointerEvents=1;" parent="ZSzThWlPJtmQaBzK4Zqw-881" vertex="1">
          <mxGeometry width="40" height="40" as="geometry">
            <mxRectangle width="40" height="40" as="alternateBounds" />
          </mxGeometry>
        </mxCell>
        <mxCell id="ZSzThWlPJtmQaBzK4Zqw-883" value="updated_at" style="shape=partialRectangle;html=1;whiteSpace=wrap;connectable=0;strokeColor=inherit;overflow=hidden;fillColor=none;top=0;left=0;bottom=0;right=0;pointerEvents=1;" parent="ZSzThWlPJtmQaBzK4Zqw-881" vertex="1">
          <mxGeometry x="40" width="160" height="40" as="geometry">
            <mxRectangle width="160" height="40" as="alternateBounds" />
          </mxGeometry>
        </mxCell>
        <mxCell id="ZSzThWlPJtmQaBzK4Zqw-884" style="shape=partialRectangle;html=1;whiteSpace=wrap;connectable=0;strokeColor=inherit;overflow=hidden;fillColor=none;top=0;left=0;bottom=0;right=0;pointerEvents=1;" parent="ZSzThWlPJtmQaBzK4Zqw-881" vertex="1">
          <mxGeometry x="200" width="120" height="40" as="geometry">
            <mxRectangle width="120" height="40" as="alternateBounds" />
          </mxGeometry>
        </mxCell>
        <mxCell id="ZSzThWlPJtmQaBzK4Zqw-885" style="shape=partialRectangle;html=1;whiteSpace=wrap;connectable=0;strokeColor=inherit;overflow=hidden;fillColor=none;top=0;left=0;bottom=0;right=0;pointerEvents=1;" parent="ZSzThWlPJtmQaBzK4Zqw-881" vertex="1">
          <mxGeometry x="320" width="120" height="40" as="geometry">
            <mxRectangle width="120" height="40" as="alternateBounds" />
          </mxGeometry>
        </mxCell>
        <mxCell id="ZSzThWlPJtmQaBzK4Zqw-886" style="shape=tableRow;horizontal=0;startSize=0;swimlaneHead=0;swimlaneBody=0;strokeColor=inherit;top=0;left=0;bottom=0;right=0;collapsible=0;dropTarget=0;fillColor=none;points=[[0,0.5],[1,0.5]];portConstraint=eastwest;" parent="ZSzThWlPJtmQaBzK4Zqw-830" vertex="1">
          <mxGeometry y="280" width="440" height="40" as="geometry" />
        </mxCell>
        <mxCell id="ZSzThWlPJtmQaBzK4Zqw-887" style="shape=partialRectangle;html=1;whiteSpace=wrap;connectable=0;strokeColor=inherit;overflow=hidden;fillColor=none;top=0;left=0;bottom=0;right=0;pointerEvents=1;" parent="ZSzThWlPJtmQaBzK4Zqw-886" vertex="1">
          <mxGeometry width="40" height="40" as="geometry">
            <mxRectangle width="40" height="40" as="alternateBounds" />
          </mxGeometry>
        </mxCell>
        <mxCell id="ZSzThWlPJtmQaBzK4Zqw-888" value="updated_by" style="shape=partialRectangle;html=1;whiteSpace=wrap;connectable=0;strokeColor=inherit;overflow=hidden;fillColor=none;top=0;left=0;bottom=0;right=0;pointerEvents=1;" parent="ZSzThWlPJtmQaBzK4Zqw-886" vertex="1">
          <mxGeometry x="40" width="160" height="40" as="geometry">
            <mxRectangle width="160" height="40" as="alternateBounds" />
          </mxGeometry>
        </mxCell>
        <mxCell id="ZSzThWlPJtmQaBzK4Zqw-889" style="shape=partialRectangle;html=1;whiteSpace=wrap;connectable=0;strokeColor=inherit;overflow=hidden;fillColor=none;top=0;left=0;bottom=0;right=0;pointerEvents=1;" parent="ZSzThWlPJtmQaBzK4Zqw-886" vertex="1">
          <mxGeometry x="200" width="120" height="40" as="geometry">
            <mxRectangle width="120" height="40" as="alternateBounds" />
          </mxGeometry>
        </mxCell>
        <mxCell id="ZSzThWlPJtmQaBzK4Zqw-890" style="shape=partialRectangle;html=1;whiteSpace=wrap;connectable=0;strokeColor=inherit;overflow=hidden;fillColor=none;top=0;left=0;bottom=0;right=0;pointerEvents=1;" parent="ZSzThWlPJtmQaBzK4Zqw-886" vertex="1">
          <mxGeometry x="320" width="120" height="40" as="geometry">
            <mxRectangle width="120" height="40" as="alternateBounds" />
          </mxGeometry>
        </mxCell>
        <mxCell id="ZSzThWlPJtmQaBzK4Zqw-896" style="shape=tableRow;horizontal=0;startSize=0;swimlaneHead=0;swimlaneBody=0;strokeColor=inherit;top=0;left=0;bottom=0;right=0;collapsible=0;dropTarget=0;fillColor=none;points=[[0,0.5],[1,0.5]];portConstraint=eastwest;" parent="ZSzThWlPJtmQaBzK4Zqw-830" vertex="1">
          <mxGeometry y="320" width="440" height="40" as="geometry" />
        </mxCell>
        <mxCell id="ZSzThWlPJtmQaBzK4Zqw-897" style="shape=partialRectangle;html=1;whiteSpace=wrap;connectable=0;strokeColor=inherit;overflow=hidden;fillColor=none;top=0;left=0;bottom=0;right=0;pointerEvents=1;" parent="ZSzThWlPJtmQaBzK4Zqw-896" vertex="1">
          <mxGeometry width="40" height="40" as="geometry">
            <mxRectangle width="40" height="40" as="alternateBounds" />
          </mxGeometry>
        </mxCell>
        <mxCell id="ZSzThWlPJtmQaBzK4Zqw-898" value="is_deleted" style="shape=partialRectangle;html=1;whiteSpace=wrap;connectable=0;strokeColor=inherit;overflow=hidden;fillColor=none;top=0;left=0;bottom=0;right=0;pointerEvents=1;" parent="ZSzThWlPJtmQaBzK4Zqw-896" vertex="1">
          <mxGeometry x="40" width="160" height="40" as="geometry">
            <mxRectangle width="160" height="40" as="alternateBounds" />
          </mxGeometry>
        </mxCell>
        <mxCell id="ZSzThWlPJtmQaBzK4Zqw-899" style="shape=partialRectangle;html=1;whiteSpace=wrap;connectable=0;strokeColor=inherit;overflow=hidden;fillColor=none;top=0;left=0;bottom=0;right=0;pointerEvents=1;" parent="ZSzThWlPJtmQaBzK4Zqw-896" vertex="1">
          <mxGeometry x="200" width="120" height="40" as="geometry">
            <mxRectangle width="120" height="40" as="alternateBounds" />
          </mxGeometry>
        </mxCell>
        <mxCell id="ZSzThWlPJtmQaBzK4Zqw-900" style="shape=partialRectangle;html=1;whiteSpace=wrap;connectable=0;strokeColor=inherit;overflow=hidden;fillColor=none;top=0;left=0;bottom=0;right=0;pointerEvents=1;" parent="ZSzThWlPJtmQaBzK4Zqw-896" vertex="1">
          <mxGeometry x="320" width="120" height="40" as="geometry">
            <mxRectangle width="120" height="40" as="alternateBounds" />
          </mxGeometry>
        </mxCell>
        <mxCell id="ZSzThWlPJtmQaBzK4Zqw-901" value="" style="shape=table;startSize=0;container=1;collapsible=0;childLayout=tableLayout;" parent="1" vertex="1">
          <mxGeometry x="-1600" y="1360" width="480" height="1429.9999999999995" as="geometry" />
        </mxCell>
        <mxCell id="ZSzThWlPJtmQaBzK4Zqw-902" value="" style="shape=tableRow;horizontal=0;startSize=0;swimlaneHead=0;swimlaneBody=0;strokeColor=inherit;top=0;left=0;bottom=0;right=0;collapsible=0;dropTarget=0;fillColor=none;points=[[0,0.5],[1,0.5]];portConstraint=eastwest;" parent="ZSzThWlPJtmQaBzK4Zqw-901" vertex="1">
          <mxGeometry width="480" height="40" as="geometry" />
        </mxCell>
        <mxCell id="ZSzThWlPJtmQaBzK4Zqw-903" value="&lt;b&gt;product&lt;/b&gt;" style="shape=partialRectangle;html=1;whiteSpace=wrap;connectable=0;strokeColor=inherit;overflow=hidden;fillColor=none;top=0;left=0;bottom=0;right=0;pointerEvents=1;rowspan=1;colspan=2;" parent="ZSzThWlPJtmQaBzK4Zqw-902" vertex="1">
          <mxGeometry width="200" height="40" as="geometry">
            <mxRectangle width="40" height="40" as="alternateBounds" />
          </mxGeometry>
        </mxCell>
        <mxCell id="ZSzThWlPJtmQaBzK4Zqw-904" value="" style="shape=partialRectangle;html=1;whiteSpace=wrap;connectable=0;strokeColor=inherit;overflow=hidden;fillColor=none;top=0;left=0;bottom=0;right=0;pointerEvents=1;" parent="ZSzThWlPJtmQaBzK4Zqw-902" vertex="1" visible="0">
          <mxGeometry x="40" width="160" height="40" as="geometry">
            <mxRectangle width="160" height="40" as="alternateBounds" />
          </mxGeometry>
        </mxCell>
        <mxCell id="ZSzThWlPJtmQaBzK4Zqw-905" value="TYPE" style="shape=partialRectangle;html=1;whiteSpace=wrap;connectable=0;strokeColor=inherit;overflow=hidden;fillColor=none;top=0;left=0;bottom=0;right=0;pointerEvents=1;" parent="ZSzThWlPJtmQaBzK4Zqw-902" vertex="1">
          <mxGeometry x="200" width="120" height="40" as="geometry">
            <mxRectangle width="120" height="40" as="alternateBounds" />
          </mxGeometry>
        </mxCell>
        <mxCell id="ZSzThWlPJtmQaBzK4Zqw-906" value="DETAILS" style="shape=partialRectangle;html=1;whiteSpace=wrap;connectable=0;strokeColor=inherit;overflow=hidden;fillColor=none;top=0;left=0;bottom=0;right=0;pointerEvents=1;" parent="ZSzThWlPJtmQaBzK4Zqw-902" vertex="1">
          <mxGeometry x="320" width="160" height="40" as="geometry">
            <mxRectangle width="160" height="40" as="alternateBounds" />
          </mxGeometry>
        </mxCell>
        <mxCell id="ZSzThWlPJtmQaBzK4Zqw-907" value="" style="shape=tableRow;horizontal=0;startSize=0;swimlaneHead=0;swimlaneBody=0;strokeColor=inherit;top=0;left=0;bottom=0;right=0;collapsible=0;dropTarget=0;fillColor=none;points=[[0,0.5],[1,0.5]];portConstraint=eastwest;" parent="ZSzThWlPJtmQaBzK4Zqw-901" vertex="1">
          <mxGeometry y="40" width="480" height="40" as="geometry" />
        </mxCell>
        <mxCell id="ZSzThWlPJtmQaBzK4Zqw-908" value="PK" style="shape=partialRectangle;html=1;whiteSpace=wrap;connectable=0;strokeColor=inherit;overflow=hidden;fillColor=none;top=0;left=0;bottom=0;right=0;pointerEvents=1;" parent="ZSzThWlPJtmQaBzK4Zqw-907" vertex="1">
          <mxGeometry width="40" height="40" as="geometry">
            <mxRectangle width="40" height="40" as="alternateBounds" />
          </mxGeometry>
        </mxCell>
        <mxCell id="ZSzThWlPJtmQaBzK4Zqw-909" value="product_id" style="shape=partialRectangle;html=1;whiteSpace=wrap;connectable=0;strokeColor=inherit;overflow=hidden;fillColor=none;top=0;left=0;bottom=0;right=0;pointerEvents=1;" parent="ZSzThWlPJtmQaBzK4Zqw-907" vertex="1">
          <mxGeometry x="40" width="160" height="40" as="geometry">
            <mxRectangle width="160" height="40" as="alternateBounds" />
          </mxGeometry>
        </mxCell>
        <mxCell id="ZSzThWlPJtmQaBzK4Zqw-910" value="INT" style="shape=partialRectangle;html=1;whiteSpace=wrap;connectable=0;strokeColor=inherit;overflow=hidden;fillColor=none;top=0;left=0;bottom=0;right=0;pointerEvents=1;" parent="ZSzThWlPJtmQaBzK4Zqw-907" vertex="1">
          <mxGeometry x="200" width="120" height="40" as="geometry">
            <mxRectangle width="120" height="40" as="alternateBounds" />
          </mxGeometry>
        </mxCell>
        <mxCell id="ZSzThWlPJtmQaBzK4Zqw-911" value="AUTO INCREMENT" style="shape=partialRectangle;html=1;whiteSpace=wrap;connectable=0;strokeColor=inherit;overflow=hidden;fillColor=none;top=0;left=0;bottom=0;right=0;pointerEvents=1;" parent="ZSzThWlPJtmQaBzK4Zqw-907" vertex="1">
          <mxGeometry x="320" width="160" height="40" as="geometry">
            <mxRectangle width="160" height="40" as="alternateBounds" />
          </mxGeometry>
        </mxCell>
        <mxCell id="ZSzThWlPJtmQaBzK4Zqw-912" value="" style="shape=tableRow;horizontal=0;startSize=0;swimlaneHead=0;swimlaneBody=0;strokeColor=inherit;top=0;left=0;bottom=0;right=0;collapsible=0;dropTarget=0;fillColor=none;points=[[0,0.5],[1,0.5]];portConstraint=eastwest;" parent="ZSzThWlPJtmQaBzK4Zqw-901" vertex="1">
          <mxGeometry y="80" width="480" height="40" as="geometry" />
        </mxCell>
        <mxCell id="ZSzThWlPJtmQaBzK4Zqw-913" value="" style="shape=partialRectangle;html=1;whiteSpace=wrap;connectable=0;strokeColor=inherit;overflow=hidden;fillColor=none;top=0;left=0;bottom=0;right=0;pointerEvents=1;" parent="ZSzThWlPJtmQaBzK4Zqw-912" vertex="1">
          <mxGeometry width="40" height="40" as="geometry">
            <mxRectangle width="40" height="40" as="alternateBounds" />
          </mxGeometry>
        </mxCell>
        <mxCell id="ZSzThWlPJtmQaBzK4Zqw-914" value="brand_id" style="shape=partialRectangle;html=1;whiteSpace=wrap;connectable=0;strokeColor=inherit;overflow=hidden;fillColor=none;top=0;left=0;bottom=0;right=0;pointerEvents=1;" parent="ZSzThWlPJtmQaBzK4Zqw-912" vertex="1">
          <mxGeometry x="40" width="160" height="40" as="geometry">
            <mxRectangle width="160" height="40" as="alternateBounds" />
          </mxGeometry>
        </mxCell>
        <mxCell id="ZSzThWlPJtmQaBzK4Zqw-915" value="INT" style="shape=partialRectangle;html=1;whiteSpace=wrap;connectable=0;strokeColor=inherit;overflow=hidden;fillColor=none;top=0;left=0;bottom=0;right=0;pointerEvents=1;" parent="ZSzThWlPJtmQaBzK4Zqw-912" vertex="1">
          <mxGeometry x="200" width="120" height="40" as="geometry">
            <mxRectangle width="120" height="40" as="alternateBounds" />
          </mxGeometry>
        </mxCell>
        <mxCell id="ZSzThWlPJtmQaBzK4Zqw-916" value="" style="shape=partialRectangle;html=1;whiteSpace=wrap;connectable=0;strokeColor=inherit;overflow=hidden;fillColor=none;top=0;left=0;bottom=0;right=0;pointerEvents=1;" parent="ZSzThWlPJtmQaBzK4Zqw-912" vertex="1">
          <mxGeometry x="320" width="160" height="40" as="geometry">
            <mxRectangle width="160" height="40" as="alternateBounds" />
          </mxGeometry>
        </mxCell>
        <mxCell id="ZSzThWlPJtmQaBzK4Zqw-982" style="shape=tableRow;horizontal=0;startSize=0;swimlaneHead=0;swimlaneBody=0;strokeColor=inherit;top=0;left=0;bottom=0;right=0;collapsible=0;dropTarget=0;fillColor=none;points=[[0,0.5],[1,0.5]];portConstraint=eastwest;" parent="ZSzThWlPJtmQaBzK4Zqw-901" vertex="1">
          <mxGeometry y="120" width="480" height="40" as="geometry" />
        </mxCell>
        <mxCell id="ZSzThWlPJtmQaBzK4Zqw-983" style="shape=partialRectangle;html=1;whiteSpace=wrap;connectable=0;strokeColor=inherit;overflow=hidden;fillColor=none;top=0;left=0;bottom=0;right=0;pointerEvents=1;" parent="ZSzThWlPJtmQaBzK4Zqw-982" vertex="1">
          <mxGeometry width="40" height="40" as="geometry">
            <mxRectangle width="40" height="40" as="alternateBounds" />
          </mxGeometry>
        </mxCell>
        <mxCell id="ZSzThWlPJtmQaBzK4Zqw-984" value="color_id" style="shape=partialRectangle;html=1;whiteSpace=wrap;connectable=0;strokeColor=inherit;overflow=hidden;fillColor=none;top=0;left=0;bottom=0;right=0;pointerEvents=1;" parent="ZSzThWlPJtmQaBzK4Zqw-982" vertex="1">
          <mxGeometry x="40" width="160" height="40" as="geometry">
            <mxRectangle width="160" height="40" as="alternateBounds" />
          </mxGeometry>
        </mxCell>
        <mxCell id="ZSzThWlPJtmQaBzK4Zqw-985" value="INT" style="shape=partialRectangle;html=1;whiteSpace=wrap;connectable=0;strokeColor=inherit;overflow=hidden;fillColor=none;top=0;left=0;bottom=0;right=0;pointerEvents=1;" parent="ZSzThWlPJtmQaBzK4Zqw-982" vertex="1">
          <mxGeometry x="200" width="120" height="40" as="geometry">
            <mxRectangle width="120" height="40" as="alternateBounds" />
          </mxGeometry>
        </mxCell>
        <mxCell id="ZSzThWlPJtmQaBzK4Zqw-986" style="shape=partialRectangle;html=1;whiteSpace=wrap;connectable=0;strokeColor=inherit;overflow=hidden;fillColor=none;top=0;left=0;bottom=0;right=0;pointerEvents=1;" parent="ZSzThWlPJtmQaBzK4Zqw-982" vertex="1">
          <mxGeometry x="320" width="160" height="40" as="geometry">
            <mxRectangle width="160" height="40" as="alternateBounds" />
          </mxGeometry>
        </mxCell>
        <mxCell id="ZSzThWlPJtmQaBzK4Zqw-977" style="shape=tableRow;horizontal=0;startSize=0;swimlaneHead=0;swimlaneBody=0;strokeColor=inherit;top=0;left=0;bottom=0;right=0;collapsible=0;dropTarget=0;fillColor=none;points=[[0,0.5],[1,0.5]];portConstraint=eastwest;" parent="ZSzThWlPJtmQaBzK4Zqw-901" vertex="1">
          <mxGeometry y="160" width="480" height="40" as="geometry" />
        </mxCell>
        <mxCell id="ZSzThWlPJtmQaBzK4Zqw-978" style="shape=partialRectangle;html=1;whiteSpace=wrap;connectable=0;strokeColor=inherit;overflow=hidden;fillColor=none;top=0;left=0;bottom=0;right=0;pointerEvents=1;" parent="ZSzThWlPJtmQaBzK4Zqw-977" vertex="1">
          <mxGeometry width="40" height="40" as="geometry">
            <mxRectangle width="40" height="40" as="alternateBounds" />
          </mxGeometry>
        </mxCell>
        <mxCell id="ZSzThWlPJtmQaBzK4Zqw-979" value="made_from_id" style="shape=partialRectangle;html=1;whiteSpace=wrap;connectable=0;strokeColor=inherit;overflow=hidden;fillColor=none;top=0;left=0;bottom=0;right=0;pointerEvents=1;" parent="ZSzThWlPJtmQaBzK4Zqw-977" vertex="1">
          <mxGeometry x="40" width="160" height="40" as="geometry">
            <mxRectangle width="160" height="40" as="alternateBounds" />
          </mxGeometry>
        </mxCell>
        <mxCell id="ZSzThWlPJtmQaBzK4Zqw-980" value="INT" style="shape=partialRectangle;html=1;whiteSpace=wrap;connectable=0;strokeColor=inherit;overflow=hidden;fillColor=none;top=0;left=0;bottom=0;right=0;pointerEvents=1;" parent="ZSzThWlPJtmQaBzK4Zqw-977" vertex="1">
          <mxGeometry x="200" width="120" height="40" as="geometry">
            <mxRectangle width="120" height="40" as="alternateBounds" />
          </mxGeometry>
        </mxCell>
        <mxCell id="ZSzThWlPJtmQaBzK4Zqw-981" style="shape=partialRectangle;html=1;whiteSpace=wrap;connectable=0;strokeColor=inherit;overflow=hidden;fillColor=none;top=0;left=0;bottom=0;right=0;pointerEvents=1;" parent="ZSzThWlPJtmQaBzK4Zqw-977" vertex="1">
          <mxGeometry x="320" width="160" height="40" as="geometry">
            <mxRectangle width="160" height="40" as="alternateBounds" />
          </mxGeometry>
        </mxCell>
        <mxCell id="ZSzThWlPJtmQaBzK4Zqw-972" style="shape=tableRow;horizontal=0;startSize=0;swimlaneHead=0;swimlaneBody=0;strokeColor=inherit;top=0;left=0;bottom=0;right=0;collapsible=0;dropTarget=0;fillColor=none;points=[[0,0.5],[1,0.5]];portConstraint=eastwest;" parent="ZSzThWlPJtmQaBzK4Zqw-901" vertex="1">
          <mxGeometry y="200" width="480" height="40" as="geometry" />
        </mxCell>
        <mxCell id="ZSzThWlPJtmQaBzK4Zqw-973" style="shape=partialRectangle;html=1;whiteSpace=wrap;connectable=0;strokeColor=inherit;overflow=hidden;fillColor=none;top=0;left=0;bottom=0;right=0;pointerEvents=1;" parent="ZSzThWlPJtmQaBzK4Zqw-972" vertex="1">
          <mxGeometry width="40" height="40" as="geometry">
            <mxRectangle width="40" height="40" as="alternateBounds" />
          </mxGeometry>
        </mxCell>
        <mxCell id="ZSzThWlPJtmQaBzK4Zqw-974" value="screen_size" style="shape=partialRectangle;html=1;whiteSpace=wrap;connectable=0;strokeColor=inherit;overflow=hidden;fillColor=none;top=0;left=0;bottom=0;right=0;pointerEvents=1;" parent="ZSzThWlPJtmQaBzK4Zqw-972" vertex="1">
          <mxGeometry x="40" width="160" height="40" as="geometry">
            <mxRectangle width="160" height="40" as="alternateBounds" />
          </mxGeometry>
        </mxCell>
        <mxCell id="ZSzThWlPJtmQaBzK4Zqw-975" value="VARCHAR(255)" style="shape=partialRectangle;html=1;whiteSpace=wrap;connectable=0;strokeColor=inherit;overflow=hidden;fillColor=none;top=0;left=0;bottom=0;right=0;pointerEvents=1;" parent="ZSzThWlPJtmQaBzK4Zqw-972" vertex="1">
          <mxGeometry x="200" width="120" height="40" as="geometry">
            <mxRectangle width="120" height="40" as="alternateBounds" />
          </mxGeometry>
        </mxCell>
        <mxCell id="ZSzThWlPJtmQaBzK4Zqw-976" style="shape=partialRectangle;html=1;whiteSpace=wrap;connectable=0;strokeColor=inherit;overflow=hidden;fillColor=none;top=0;left=0;bottom=0;right=0;pointerEvents=1;" parent="ZSzThWlPJtmQaBzK4Zqw-972" vertex="1">
          <mxGeometry x="320" width="160" height="40" as="geometry">
            <mxRectangle width="160" height="40" as="alternateBounds" />
          </mxGeometry>
        </mxCell>
        <mxCell id="ZSzThWlPJtmQaBzK4Zqw-987" style="shape=tableRow;horizontal=0;startSize=0;swimlaneHead=0;swimlaneBody=0;strokeColor=inherit;top=0;left=0;bottom=0;right=0;collapsible=0;dropTarget=0;fillColor=none;points=[[0,0.5],[1,0.5]];portConstraint=eastwest;" parent="ZSzThWlPJtmQaBzK4Zqw-901" vertex="1">
          <mxGeometry y="240" width="480" height="40" as="geometry" />
        </mxCell>
        <mxCell id="ZSzThWlPJtmQaBzK4Zqw-988" style="shape=partialRectangle;html=1;whiteSpace=wrap;connectable=0;strokeColor=inherit;overflow=hidden;fillColor=none;top=0;left=0;bottom=0;right=0;pointerEvents=1;" parent="ZSzThWlPJtmQaBzK4Zqw-987" vertex="1">
          <mxGeometry width="40" height="40" as="geometry">
            <mxRectangle width="40" height="40" as="alternateBounds" />
          </mxGeometry>
        </mxCell>
        <mxCell id="ZSzThWlPJtmQaBzK4Zqw-989" value="screen_details" style="shape=partialRectangle;html=1;whiteSpace=wrap;connectable=0;strokeColor=inherit;overflow=hidden;fillColor=none;top=0;left=0;bottom=0;right=0;pointerEvents=1;" parent="ZSzThWlPJtmQaBzK4Zqw-987" vertex="1">
          <mxGeometry x="40" width="160" height="40" as="geometry">
            <mxRectangle width="160" height="40" as="alternateBounds" />
          </mxGeometry>
        </mxCell>
        <mxCell id="ZSzThWlPJtmQaBzK4Zqw-990" value="VARCHAR(255)" style="shape=partialRectangle;html=1;whiteSpace=wrap;connectable=0;strokeColor=inherit;overflow=hidden;fillColor=none;top=0;left=0;bottom=0;right=0;pointerEvents=1;" parent="ZSzThWlPJtmQaBzK4Zqw-987" vertex="1">
          <mxGeometry x="200" width="120" height="40" as="geometry">
            <mxRectangle width="120" height="40" as="alternateBounds" />
          </mxGeometry>
        </mxCell>
        <mxCell id="ZSzThWlPJtmQaBzK4Zqw-991" style="shape=partialRectangle;html=1;whiteSpace=wrap;connectable=0;strokeColor=inherit;overflow=hidden;fillColor=none;top=0;left=0;bottom=0;right=0;pointerEvents=1;" parent="ZSzThWlPJtmQaBzK4Zqw-987" vertex="1">
          <mxGeometry x="320" width="160" height="40" as="geometry">
            <mxRectangle width="160" height="40" as="alternateBounds" />
          </mxGeometry>
        </mxCell>
        <mxCell id="ZSzThWlPJtmQaBzK4Zqw-1017" style="shape=tableRow;horizontal=0;startSize=0;swimlaneHead=0;swimlaneBody=0;strokeColor=inherit;top=0;left=0;bottom=0;right=0;collapsible=0;dropTarget=0;fillColor=none;points=[[0,0.5],[1,0.5]];portConstraint=eastwest;" parent="ZSzThWlPJtmQaBzK4Zqw-901" vertex="1">
          <mxGeometry y="280" width="480" height="40" as="geometry" />
        </mxCell>
        <mxCell id="ZSzThWlPJtmQaBzK4Zqw-1018" style="shape=partialRectangle;html=1;whiteSpace=wrap;connectable=0;strokeColor=inherit;overflow=hidden;fillColor=none;top=0;left=0;bottom=0;right=0;pointerEvents=1;" parent="ZSzThWlPJtmQaBzK4Zqw-1017" vertex="1">
          <mxGeometry width="40" height="40" as="geometry">
            <mxRectangle width="40" height="40" as="alternateBounds" />
          </mxGeometry>
        </mxCell>
        <mxCell id="ZSzThWlPJtmQaBzK4Zqw-1019" value="screen_resolution" style="shape=partialRectangle;html=1;whiteSpace=wrap;connectable=0;strokeColor=inherit;overflow=hidden;fillColor=none;top=0;left=0;bottom=0;right=0;pointerEvents=1;" parent="ZSzThWlPJtmQaBzK4Zqw-1017" vertex="1">
          <mxGeometry x="40" width="160" height="40" as="geometry">
            <mxRectangle width="160" height="40" as="alternateBounds" />
          </mxGeometry>
        </mxCell>
        <mxCell id="ZSzThWlPJtmQaBzK4Zqw-1020" value="VARCHAR(255)" style="shape=partialRectangle;html=1;whiteSpace=wrap;connectable=0;strokeColor=inherit;overflow=hidden;fillColor=none;top=0;left=0;bottom=0;right=0;pointerEvents=1;" parent="ZSzThWlPJtmQaBzK4Zqw-1017" vertex="1">
          <mxGeometry x="200" width="120" height="40" as="geometry">
            <mxRectangle width="120" height="40" as="alternateBounds" />
          </mxGeometry>
        </mxCell>
        <mxCell id="ZSzThWlPJtmQaBzK4Zqw-1021" style="shape=partialRectangle;html=1;whiteSpace=wrap;connectable=0;strokeColor=inherit;overflow=hidden;fillColor=none;top=0;left=0;bottom=0;right=0;pointerEvents=1;" parent="ZSzThWlPJtmQaBzK4Zqw-1017" vertex="1">
          <mxGeometry x="320" width="160" height="40" as="geometry">
            <mxRectangle width="160" height="40" as="alternateBounds" />
          </mxGeometry>
        </mxCell>
        <mxCell id="ZSzThWlPJtmQaBzK4Zqw-1012" style="shape=tableRow;horizontal=0;startSize=0;swimlaneHead=0;swimlaneBody=0;strokeColor=inherit;top=0;left=0;bottom=0;right=0;collapsible=0;dropTarget=0;fillColor=none;points=[[0,0.5],[1,0.5]];portConstraint=eastwest;" parent="ZSzThWlPJtmQaBzK4Zqw-901" vertex="1">
          <mxGeometry y="320" width="480" height="40" as="geometry" />
        </mxCell>
        <mxCell id="ZSzThWlPJtmQaBzK4Zqw-1013" style="shape=partialRectangle;html=1;whiteSpace=wrap;connectable=0;strokeColor=inherit;overflow=hidden;fillColor=none;top=0;left=0;bottom=0;right=0;pointerEvents=1;" parent="ZSzThWlPJtmQaBzK4Zqw-1012" vertex="1">
          <mxGeometry width="40" height="40" as="geometry">
            <mxRectangle width="40" height="40" as="alternateBounds" />
          </mxGeometry>
        </mxCell>
        <mxCell id="ZSzThWlPJtmQaBzK4Zqw-1014" value="screen_refresh_rate" style="shape=partialRectangle;html=1;whiteSpace=wrap;connectable=0;strokeColor=inherit;overflow=hidden;fillColor=none;top=0;left=0;bottom=0;right=0;pointerEvents=1;" parent="ZSzThWlPJtmQaBzK4Zqw-1012" vertex="1">
          <mxGeometry x="40" width="160" height="40" as="geometry">
            <mxRectangle width="160" height="40" as="alternateBounds" />
          </mxGeometry>
        </mxCell>
        <mxCell id="ZSzThWlPJtmQaBzK4Zqw-1015" value="VARCHAR(255)" style="shape=partialRectangle;html=1;whiteSpace=wrap;connectable=0;strokeColor=inherit;overflow=hidden;fillColor=none;top=0;left=0;bottom=0;right=0;pointerEvents=1;" parent="ZSzThWlPJtmQaBzK4Zqw-1012" vertex="1">
          <mxGeometry x="200" width="120" height="40" as="geometry">
            <mxRectangle width="120" height="40" as="alternateBounds" />
          </mxGeometry>
        </mxCell>
        <mxCell id="ZSzThWlPJtmQaBzK4Zqw-1016" style="shape=partialRectangle;html=1;whiteSpace=wrap;connectable=0;strokeColor=inherit;overflow=hidden;fillColor=none;top=0;left=0;bottom=0;right=0;pointerEvents=1;" parent="ZSzThWlPJtmQaBzK4Zqw-1012" vertex="1">
          <mxGeometry x="320" width="160" height="40" as="geometry">
            <mxRectangle width="160" height="40" as="alternateBounds" />
          </mxGeometry>
        </mxCell>
        <mxCell id="ZSzThWlPJtmQaBzK4Zqw-1002" style="shape=tableRow;horizontal=0;startSize=0;swimlaneHead=0;swimlaneBody=0;strokeColor=inherit;top=0;left=0;bottom=0;right=0;collapsible=0;dropTarget=0;fillColor=none;points=[[0,0.5],[1,0.5]];portConstraint=eastwest;" parent="ZSzThWlPJtmQaBzK4Zqw-901" vertex="1">
          <mxGeometry y="360" width="480" height="40" as="geometry" />
        </mxCell>
        <mxCell id="ZSzThWlPJtmQaBzK4Zqw-1003" style="shape=partialRectangle;html=1;whiteSpace=wrap;connectable=0;strokeColor=inherit;overflow=hidden;fillColor=none;top=0;left=0;bottom=0;right=0;pointerEvents=1;" parent="ZSzThWlPJtmQaBzK4Zqw-1002" vertex="1">
          <mxGeometry width="40" height="40" as="geometry">
            <mxRectangle width="40" height="40" as="alternateBounds" />
          </mxGeometry>
        </mxCell>
        <mxCell id="ZSzThWlPJtmQaBzK4Zqw-1004" value="camera_front" style="shape=partialRectangle;html=1;whiteSpace=wrap;connectable=0;strokeColor=inherit;overflow=hidden;fillColor=none;top=0;left=0;bottom=0;right=0;pointerEvents=1;" parent="ZSzThWlPJtmQaBzK4Zqw-1002" vertex="1">
          <mxGeometry x="40" width="160" height="40" as="geometry">
            <mxRectangle width="160" height="40" as="alternateBounds" />
          </mxGeometry>
        </mxCell>
        <mxCell id="ZSzThWlPJtmQaBzK4Zqw-1005" value="VARCHAR(255)" style="shape=partialRectangle;html=1;whiteSpace=wrap;connectable=0;strokeColor=inherit;overflow=hidden;fillColor=none;top=0;left=0;bottom=0;right=0;pointerEvents=1;" parent="ZSzThWlPJtmQaBzK4Zqw-1002" vertex="1">
          <mxGeometry x="200" width="120" height="40" as="geometry">
            <mxRectangle width="120" height="40" as="alternateBounds" />
          </mxGeometry>
        </mxCell>
        <mxCell id="ZSzThWlPJtmQaBzK4Zqw-1006" style="shape=partialRectangle;html=1;whiteSpace=wrap;connectable=0;strokeColor=inherit;overflow=hidden;fillColor=none;top=0;left=0;bottom=0;right=0;pointerEvents=1;" parent="ZSzThWlPJtmQaBzK4Zqw-1002" vertex="1">
          <mxGeometry x="320" width="160" height="40" as="geometry">
            <mxRectangle width="160" height="40" as="alternateBounds" />
          </mxGeometry>
        </mxCell>
        <mxCell id="ZSzThWlPJtmQaBzK4Zqw-1027" style="shape=tableRow;horizontal=0;startSize=0;swimlaneHead=0;swimlaneBody=0;strokeColor=inherit;top=0;left=0;bottom=0;right=0;collapsible=0;dropTarget=0;fillColor=none;points=[[0,0.5],[1,0.5]];portConstraint=eastwest;" parent="ZSzThWlPJtmQaBzK4Zqw-901" vertex="1">
          <mxGeometry y="400" width="480" height="40" as="geometry" />
        </mxCell>
        <mxCell id="ZSzThWlPJtmQaBzK4Zqw-1028" style="shape=partialRectangle;html=1;whiteSpace=wrap;connectable=0;strokeColor=inherit;overflow=hidden;fillColor=none;top=0;left=0;bottom=0;right=0;pointerEvents=1;" parent="ZSzThWlPJtmQaBzK4Zqw-1027" vertex="1">
          <mxGeometry width="40" height="40" as="geometry">
            <mxRectangle width="40" height="40" as="alternateBounds" />
          </mxGeometry>
        </mxCell>
        <mxCell id="ZSzThWlPJtmQaBzK4Zqw-1029" value="camera_front_details" style="shape=partialRectangle;html=1;whiteSpace=wrap;connectable=0;strokeColor=inherit;overflow=hidden;fillColor=none;top=0;left=0;bottom=0;right=0;pointerEvents=1;" parent="ZSzThWlPJtmQaBzK4Zqw-1027" vertex="1">
          <mxGeometry x="40" width="160" height="40" as="geometry">
            <mxRectangle width="160" height="40" as="alternateBounds" />
          </mxGeometry>
        </mxCell>
        <mxCell id="ZSzThWlPJtmQaBzK4Zqw-1030" value="VARCHAR(255)" style="shape=partialRectangle;html=1;whiteSpace=wrap;connectable=0;strokeColor=inherit;overflow=hidden;fillColor=none;top=0;left=0;bottom=0;right=0;pointerEvents=1;" parent="ZSzThWlPJtmQaBzK4Zqw-1027" vertex="1">
          <mxGeometry x="200" width="120" height="40" as="geometry">
            <mxRectangle width="120" height="40" as="alternateBounds" />
          </mxGeometry>
        </mxCell>
        <mxCell id="ZSzThWlPJtmQaBzK4Zqw-1031" style="shape=partialRectangle;html=1;whiteSpace=wrap;connectable=0;strokeColor=inherit;overflow=hidden;fillColor=none;top=0;left=0;bottom=0;right=0;pointerEvents=1;" parent="ZSzThWlPJtmQaBzK4Zqw-1027" vertex="1">
          <mxGeometry x="320" width="160" height="40" as="geometry">
            <mxRectangle width="160" height="40" as="alternateBounds" />
          </mxGeometry>
        </mxCell>
        <mxCell id="ZSzThWlPJtmQaBzK4Zqw-997" style="shape=tableRow;horizontal=0;startSize=0;swimlaneHead=0;swimlaneBody=0;strokeColor=inherit;top=0;left=0;bottom=0;right=0;collapsible=0;dropTarget=0;fillColor=none;points=[[0,0.5],[1,0.5]];portConstraint=eastwest;" parent="ZSzThWlPJtmQaBzK4Zqw-901" vertex="1">
          <mxGeometry y="440" width="480" height="40" as="geometry" />
        </mxCell>
        <mxCell id="ZSzThWlPJtmQaBzK4Zqw-998" style="shape=partialRectangle;html=1;whiteSpace=wrap;connectable=0;strokeColor=inherit;overflow=hidden;fillColor=none;top=0;left=0;bottom=0;right=0;pointerEvents=1;" parent="ZSzThWlPJtmQaBzK4Zqw-997" vertex="1">
          <mxGeometry width="40" height="40" as="geometry">
            <mxRectangle width="40" height="40" as="alternateBounds" />
          </mxGeometry>
        </mxCell>
        <mxCell id="ZSzThWlPJtmQaBzK4Zqw-999" value="camera_rear" style="shape=partialRectangle;html=1;whiteSpace=wrap;connectable=0;strokeColor=inherit;overflow=hidden;fillColor=none;top=0;left=0;bottom=0;right=0;pointerEvents=1;" parent="ZSzThWlPJtmQaBzK4Zqw-997" vertex="1">
          <mxGeometry x="40" width="160" height="40" as="geometry">
            <mxRectangle width="160" height="40" as="alternateBounds" />
          </mxGeometry>
        </mxCell>
        <mxCell id="ZSzThWlPJtmQaBzK4Zqw-1000" value="VARCHAR(255)" style="shape=partialRectangle;html=1;whiteSpace=wrap;connectable=0;strokeColor=inherit;overflow=hidden;fillColor=none;top=0;left=0;bottom=0;right=0;pointerEvents=1;" parent="ZSzThWlPJtmQaBzK4Zqw-997" vertex="1">
          <mxGeometry x="200" width="120" height="40" as="geometry">
            <mxRectangle width="120" height="40" as="alternateBounds" />
          </mxGeometry>
        </mxCell>
        <mxCell id="ZSzThWlPJtmQaBzK4Zqw-1001" style="shape=partialRectangle;html=1;whiteSpace=wrap;connectable=0;strokeColor=inherit;overflow=hidden;fillColor=none;top=0;left=0;bottom=0;right=0;pointerEvents=1;" parent="ZSzThWlPJtmQaBzK4Zqw-997" vertex="1">
          <mxGeometry x="320" width="160" height="40" as="geometry">
            <mxRectangle width="160" height="40" as="alternateBounds" />
          </mxGeometry>
        </mxCell>
        <mxCell id="ZSzThWlPJtmQaBzK4Zqw-1032" style="shape=tableRow;horizontal=0;startSize=0;swimlaneHead=0;swimlaneBody=0;strokeColor=inherit;top=0;left=0;bottom=0;right=0;collapsible=0;dropTarget=0;fillColor=none;points=[[0,0.5],[1,0.5]];portConstraint=eastwest;" parent="ZSzThWlPJtmQaBzK4Zqw-901" vertex="1">
          <mxGeometry y="480" width="480" height="40" as="geometry" />
        </mxCell>
        <mxCell id="ZSzThWlPJtmQaBzK4Zqw-1033" style="shape=partialRectangle;html=1;whiteSpace=wrap;connectable=0;strokeColor=inherit;overflow=hidden;fillColor=none;top=0;left=0;bottom=0;right=0;pointerEvents=1;" parent="ZSzThWlPJtmQaBzK4Zqw-1032" vertex="1">
          <mxGeometry width="40" height="40" as="geometry">
            <mxRectangle width="40" height="40" as="alternateBounds" />
          </mxGeometry>
        </mxCell>
        <mxCell id="ZSzThWlPJtmQaBzK4Zqw-1034" value="camera_rear_details" style="shape=partialRectangle;html=1;whiteSpace=wrap;connectable=0;strokeColor=inherit;overflow=hidden;fillColor=none;top=0;left=0;bottom=0;right=0;pointerEvents=1;" parent="ZSzThWlPJtmQaBzK4Zqw-1032" vertex="1">
          <mxGeometry x="40" width="160" height="40" as="geometry">
            <mxRectangle width="160" height="40" as="alternateBounds" />
          </mxGeometry>
        </mxCell>
        <mxCell id="ZSzThWlPJtmQaBzK4Zqw-1035" value="VARCHAR(255)" style="shape=partialRectangle;html=1;whiteSpace=wrap;connectable=0;strokeColor=inherit;overflow=hidden;fillColor=none;top=0;left=0;bottom=0;right=0;pointerEvents=1;" parent="ZSzThWlPJtmQaBzK4Zqw-1032" vertex="1">
          <mxGeometry x="200" width="120" height="40" as="geometry">
            <mxRectangle width="120" height="40" as="alternateBounds" />
          </mxGeometry>
        </mxCell>
        <mxCell id="ZSzThWlPJtmQaBzK4Zqw-1036" style="shape=partialRectangle;html=1;whiteSpace=wrap;connectable=0;strokeColor=inherit;overflow=hidden;fillColor=none;top=0;left=0;bottom=0;right=0;pointerEvents=1;" parent="ZSzThWlPJtmQaBzK4Zqw-1032" vertex="1">
          <mxGeometry x="320" width="160" height="40" as="geometry">
            <mxRectangle width="160" height="40" as="alternateBounds" />
          </mxGeometry>
        </mxCell>
        <mxCell id="ZSzThWlPJtmQaBzK4Zqw-992" style="shape=tableRow;horizontal=0;startSize=0;swimlaneHead=0;swimlaneBody=0;strokeColor=inherit;top=0;left=0;bottom=0;right=0;collapsible=0;dropTarget=0;fillColor=none;points=[[0,0.5],[1,0.5]];portConstraint=eastwest;" parent="ZSzThWlPJtmQaBzK4Zqw-901" vertex="1">
          <mxGeometry y="520" width="480" height="40" as="geometry" />
        </mxCell>
        <mxCell id="ZSzThWlPJtmQaBzK4Zqw-993" style="shape=partialRectangle;html=1;whiteSpace=wrap;connectable=0;strokeColor=inherit;overflow=hidden;fillColor=none;top=0;left=0;bottom=0;right=0;pointerEvents=1;" parent="ZSzThWlPJtmQaBzK4Zqw-992" vertex="1">
          <mxGeometry width="40" height="40" as="geometry">
            <mxRectangle width="40" height="40" as="alternateBounds" />
          </mxGeometry>
        </mxCell>
        <mxCell id="ZSzThWlPJtmQaBzK4Zqw-994" value="chipset" style="shape=partialRectangle;html=1;whiteSpace=wrap;connectable=0;strokeColor=inherit;overflow=hidden;fillColor=none;top=0;left=0;bottom=0;right=0;pointerEvents=1;" parent="ZSzThWlPJtmQaBzK4Zqw-992" vertex="1">
          <mxGeometry x="40" width="160" height="40" as="geometry">
            <mxRectangle width="160" height="40" as="alternateBounds" />
          </mxGeometry>
        </mxCell>
        <mxCell id="ZSzThWlPJtmQaBzK4Zqw-995" value="VARCHAR(255)" style="shape=partialRectangle;html=1;whiteSpace=wrap;connectable=0;strokeColor=inherit;overflow=hidden;fillColor=none;top=0;left=0;bottom=0;right=0;pointerEvents=1;" parent="ZSzThWlPJtmQaBzK4Zqw-992" vertex="1">
          <mxGeometry x="200" width="120" height="40" as="geometry">
            <mxRectangle width="120" height="40" as="alternateBounds" />
          </mxGeometry>
        </mxCell>
        <mxCell id="ZSzThWlPJtmQaBzK4Zqw-996" style="shape=partialRectangle;html=1;whiteSpace=wrap;connectable=0;strokeColor=inherit;overflow=hidden;fillColor=none;top=0;left=0;bottom=0;right=0;pointerEvents=1;" parent="ZSzThWlPJtmQaBzK4Zqw-992" vertex="1">
          <mxGeometry x="320" width="160" height="40" as="geometry">
            <mxRectangle width="160" height="40" as="alternateBounds" />
          </mxGeometry>
        </mxCell>
        <mxCell id="ZSzThWlPJtmQaBzK4Zqw-1022" style="shape=tableRow;horizontal=0;startSize=0;swimlaneHead=0;swimlaneBody=0;strokeColor=inherit;top=0;left=0;bottom=0;right=0;collapsible=0;dropTarget=0;fillColor=none;points=[[0,0.5],[1,0.5]];portConstraint=eastwest;" parent="ZSzThWlPJtmQaBzK4Zqw-901" vertex="1">
          <mxGeometry y="560" width="480" height="40" as="geometry" />
        </mxCell>
        <mxCell id="ZSzThWlPJtmQaBzK4Zqw-1023" style="shape=partialRectangle;html=1;whiteSpace=wrap;connectable=0;strokeColor=inherit;overflow=hidden;fillColor=none;top=0;left=0;bottom=0;right=0;pointerEvents=1;" parent="ZSzThWlPJtmQaBzK4Zqw-1022" vertex="1">
          <mxGeometry width="40" height="40" as="geometry">
            <mxRectangle width="40" height="40" as="alternateBounds" />
          </mxGeometry>
        </mxCell>
        <mxCell id="ZSzThWlPJtmQaBzK4Zqw-1024" value="gpu" style="shape=partialRectangle;html=1;whiteSpace=wrap;connectable=0;strokeColor=inherit;overflow=hidden;fillColor=none;top=0;left=0;bottom=0;right=0;pointerEvents=1;" parent="ZSzThWlPJtmQaBzK4Zqw-1022" vertex="1">
          <mxGeometry x="40" width="160" height="40" as="geometry">
            <mxRectangle width="160" height="40" as="alternateBounds" />
          </mxGeometry>
        </mxCell>
        <mxCell id="ZSzThWlPJtmQaBzK4Zqw-1025" value="VARCHAR(255)" style="shape=partialRectangle;html=1;whiteSpace=wrap;connectable=0;strokeColor=inherit;overflow=hidden;fillColor=none;top=0;left=0;bottom=0;right=0;pointerEvents=1;" parent="ZSzThWlPJtmQaBzK4Zqw-1022" vertex="1">
          <mxGeometry x="200" width="120" height="40" as="geometry">
            <mxRectangle width="120" height="40" as="alternateBounds" />
          </mxGeometry>
        </mxCell>
        <mxCell id="ZSzThWlPJtmQaBzK4Zqw-1026" style="shape=partialRectangle;html=1;whiteSpace=wrap;connectable=0;strokeColor=inherit;overflow=hidden;fillColor=none;top=0;left=0;bottom=0;right=0;pointerEvents=1;" parent="ZSzThWlPJtmQaBzK4Zqw-1022" vertex="1">
          <mxGeometry x="320" width="160" height="40" as="geometry">
            <mxRectangle width="160" height="40" as="alternateBounds" />
          </mxGeometry>
        </mxCell>
        <mxCell id="ZSzThWlPJtmQaBzK4Zqw-1052" style="shape=tableRow;horizontal=0;startSize=0;swimlaneHead=0;swimlaneBody=0;strokeColor=inherit;top=0;left=0;bottom=0;right=0;collapsible=0;dropTarget=0;fillColor=none;points=[[0,0.5],[1,0.5]];portConstraint=eastwest;" parent="ZSzThWlPJtmQaBzK4Zqw-901" vertex="1">
          <mxGeometry y="600" width="480" height="40" as="geometry" />
        </mxCell>
        <mxCell id="ZSzThWlPJtmQaBzK4Zqw-1053" style="shape=partialRectangle;html=1;whiteSpace=wrap;connectable=0;strokeColor=inherit;overflow=hidden;fillColor=none;top=0;left=0;bottom=0;right=0;pointerEvents=1;" parent="ZSzThWlPJtmQaBzK4Zqw-1052" vertex="1">
          <mxGeometry width="40" height="40" as="geometry">
            <mxRectangle width="40" height="40" as="alternateBounds" />
          </mxGeometry>
        </mxCell>
        <mxCell id="ZSzThWlPJtmQaBzK4Zqw-1054" value="nfc" style="shape=partialRectangle;html=1;whiteSpace=wrap;connectable=0;strokeColor=inherit;overflow=hidden;fillColor=none;top=0;left=0;bottom=0;right=0;pointerEvents=1;" parent="ZSzThWlPJtmQaBzK4Zqw-1052" vertex="1">
          <mxGeometry x="40" width="160" height="40" as="geometry">
            <mxRectangle width="160" height="40" as="alternateBounds" />
          </mxGeometry>
        </mxCell>
        <mxCell id="ZSzThWlPJtmQaBzK4Zqw-1055" value="VARCHAR(255)" style="shape=partialRectangle;html=1;whiteSpace=wrap;connectable=0;strokeColor=inherit;overflow=hidden;fillColor=none;top=0;left=0;bottom=0;right=0;pointerEvents=1;" parent="ZSzThWlPJtmQaBzK4Zqw-1052" vertex="1">
          <mxGeometry x="200" width="120" height="40" as="geometry">
            <mxRectangle width="120" height="40" as="alternateBounds" />
          </mxGeometry>
        </mxCell>
        <mxCell id="ZSzThWlPJtmQaBzK4Zqw-1056" style="shape=partialRectangle;html=1;whiteSpace=wrap;connectable=0;strokeColor=inherit;overflow=hidden;fillColor=none;top=0;left=0;bottom=0;right=0;pointerEvents=1;" parent="ZSzThWlPJtmQaBzK4Zqw-1052" vertex="1">
          <mxGeometry x="320" width="160" height="40" as="geometry">
            <mxRectangle width="160" height="40" as="alternateBounds" />
          </mxGeometry>
        </mxCell>
        <mxCell id="ZSzThWlPJtmQaBzK4Zqw-1047" style="shape=tableRow;horizontal=0;startSize=0;swimlaneHead=0;swimlaneBody=0;strokeColor=inherit;top=0;left=0;bottom=0;right=0;collapsible=0;dropTarget=0;fillColor=none;points=[[0,0.5],[1,0.5]];portConstraint=eastwest;" parent="ZSzThWlPJtmQaBzK4Zqw-901" vertex="1">
          <mxGeometry y="640" width="480" height="40" as="geometry" />
        </mxCell>
        <mxCell id="ZSzThWlPJtmQaBzK4Zqw-1048" style="shape=partialRectangle;html=1;whiteSpace=wrap;connectable=0;strokeColor=inherit;overflow=hidden;fillColor=none;top=0;left=0;bottom=0;right=0;pointerEvents=1;" parent="ZSzThWlPJtmQaBzK4Zqw-1047" vertex="1">
          <mxGeometry width="40" height="40" as="geometry">
            <mxRectangle width="40" height="40" as="alternateBounds" />
          </mxGeometry>
        </mxCell>
        <mxCell id="ZSzThWlPJtmQaBzK4Zqw-1049" value="sim" style="shape=partialRectangle;html=1;whiteSpace=wrap;connectable=0;strokeColor=inherit;overflow=hidden;fillColor=none;top=0;left=0;bottom=0;right=0;pointerEvents=1;" parent="ZSzThWlPJtmQaBzK4Zqw-1047" vertex="1">
          <mxGeometry x="40" width="160" height="40" as="geometry">
            <mxRectangle width="160" height="40" as="alternateBounds" />
          </mxGeometry>
        </mxCell>
        <mxCell id="ZSzThWlPJtmQaBzK4Zqw-1050" value="VARCHAR(255)" style="shape=partialRectangle;html=1;whiteSpace=wrap;connectable=0;strokeColor=inherit;overflow=hidden;fillColor=none;top=0;left=0;bottom=0;right=0;pointerEvents=1;" parent="ZSzThWlPJtmQaBzK4Zqw-1047" vertex="1">
          <mxGeometry x="200" width="120" height="40" as="geometry">
            <mxRectangle width="120" height="40" as="alternateBounds" />
          </mxGeometry>
        </mxCell>
        <mxCell id="ZSzThWlPJtmQaBzK4Zqw-1051" style="shape=partialRectangle;html=1;whiteSpace=wrap;connectable=0;strokeColor=inherit;overflow=hidden;fillColor=none;top=0;left=0;bottom=0;right=0;pointerEvents=1;" parent="ZSzThWlPJtmQaBzK4Zqw-1047" vertex="1">
          <mxGeometry x="320" width="160" height="40" as="geometry">
            <mxRectangle width="160" height="40" as="alternateBounds" />
          </mxGeometry>
        </mxCell>
        <mxCell id="ZSzThWlPJtmQaBzK4Zqw-1042" style="shape=tableRow;horizontal=0;startSize=0;swimlaneHead=0;swimlaneBody=0;strokeColor=inherit;top=0;left=0;bottom=0;right=0;collapsible=0;dropTarget=0;fillColor=none;points=[[0,0.5],[1,0.5]];portConstraint=eastwest;" parent="ZSzThWlPJtmQaBzK4Zqw-901" vertex="1">
          <mxGeometry y="680" width="480" height="40" as="geometry" />
        </mxCell>
        <mxCell id="ZSzThWlPJtmQaBzK4Zqw-1043" style="shape=partialRectangle;html=1;whiteSpace=wrap;connectable=0;strokeColor=inherit;overflow=hidden;fillColor=none;top=0;left=0;bottom=0;right=0;pointerEvents=1;" parent="ZSzThWlPJtmQaBzK4Zqw-1042" vertex="1">
          <mxGeometry width="40" height="40" as="geometry">
            <mxRectangle width="40" height="40" as="alternateBounds" />
          </mxGeometry>
        </mxCell>
        <mxCell id="ZSzThWlPJtmQaBzK4Zqw-1044" value="audio_port" style="shape=partialRectangle;html=1;whiteSpace=wrap;connectable=0;strokeColor=inherit;overflow=hidden;fillColor=none;top=0;left=0;bottom=0;right=0;pointerEvents=1;" parent="ZSzThWlPJtmQaBzK4Zqw-1042" vertex="1">
          <mxGeometry x="40" width="160" height="40" as="geometry">
            <mxRectangle width="160" height="40" as="alternateBounds" />
          </mxGeometry>
        </mxCell>
        <mxCell id="ZSzThWlPJtmQaBzK4Zqw-1045" value="VARCHAR(255)" style="shape=partialRectangle;html=1;whiteSpace=wrap;connectable=0;strokeColor=inherit;overflow=hidden;fillColor=none;top=0;left=0;bottom=0;right=0;pointerEvents=1;" parent="ZSzThWlPJtmQaBzK4Zqw-1042" vertex="1">
          <mxGeometry x="200" width="120" height="40" as="geometry">
            <mxRectangle width="120" height="40" as="alternateBounds" />
          </mxGeometry>
        </mxCell>
        <mxCell id="ZSzThWlPJtmQaBzK4Zqw-1046" style="shape=partialRectangle;html=1;whiteSpace=wrap;connectable=0;strokeColor=inherit;overflow=hidden;fillColor=none;top=0;left=0;bottom=0;right=0;pointerEvents=1;" parent="ZSzThWlPJtmQaBzK4Zqw-1042" vertex="1">
          <mxGeometry x="320" width="160" height="40" as="geometry">
            <mxRectangle width="160" height="40" as="alternateBounds" />
          </mxGeometry>
        </mxCell>
        <mxCell id="ZSzThWlPJtmQaBzK4Zqw-1037" style="shape=tableRow;horizontal=0;startSize=0;swimlaneHead=0;swimlaneBody=0;strokeColor=inherit;top=0;left=0;bottom=0;right=0;collapsible=0;dropTarget=0;fillColor=none;points=[[0,0.5],[1,0.5]];portConstraint=eastwest;" parent="ZSzThWlPJtmQaBzK4Zqw-901" vertex="1">
          <mxGeometry y="720" width="480" height="40" as="geometry" />
        </mxCell>
        <mxCell id="ZSzThWlPJtmQaBzK4Zqw-1038" style="shape=partialRectangle;html=1;whiteSpace=wrap;connectable=0;strokeColor=inherit;overflow=hidden;fillColor=none;top=0;left=0;bottom=0;right=0;pointerEvents=1;" parent="ZSzThWlPJtmQaBzK4Zqw-1037" vertex="1">
          <mxGeometry width="40" height="40" as="geometry">
            <mxRectangle width="40" height="40" as="alternateBounds" />
          </mxGeometry>
        </mxCell>
        <mxCell id="ZSzThWlPJtmQaBzK4Zqw-1039" value="gps" style="shape=partialRectangle;html=1;whiteSpace=wrap;connectable=0;strokeColor=inherit;overflow=hidden;fillColor=none;top=0;left=0;bottom=0;right=0;pointerEvents=1;" parent="ZSzThWlPJtmQaBzK4Zqw-1037" vertex="1">
          <mxGeometry x="40" width="160" height="40" as="geometry">
            <mxRectangle width="160" height="40" as="alternateBounds" />
          </mxGeometry>
        </mxCell>
        <mxCell id="ZSzThWlPJtmQaBzK4Zqw-1040" value="VARCHAR(255)" style="shape=partialRectangle;html=1;whiteSpace=wrap;connectable=0;strokeColor=inherit;overflow=hidden;fillColor=none;top=0;left=0;bottom=0;right=0;pointerEvents=1;" parent="ZSzThWlPJtmQaBzK4Zqw-1037" vertex="1">
          <mxGeometry x="200" width="120" height="40" as="geometry">
            <mxRectangle width="120" height="40" as="alternateBounds" />
          </mxGeometry>
        </mxCell>
        <mxCell id="ZSzThWlPJtmQaBzK4Zqw-1041" style="shape=partialRectangle;html=1;whiteSpace=wrap;connectable=0;strokeColor=inherit;overflow=hidden;fillColor=none;top=0;left=0;bottom=0;right=0;pointerEvents=1;" parent="ZSzThWlPJtmQaBzK4Zqw-1037" vertex="1">
          <mxGeometry x="320" width="160" height="40" as="geometry">
            <mxRectangle width="160" height="40" as="alternateBounds" />
          </mxGeometry>
        </mxCell>
        <mxCell id="ZSzThWlPJtmQaBzK4Zqw-1087" style="shape=tableRow;horizontal=0;startSize=0;swimlaneHead=0;swimlaneBody=0;strokeColor=inherit;top=0;left=0;bottom=0;right=0;collapsible=0;dropTarget=0;fillColor=none;points=[[0,0.5],[1,0.5]];portConstraint=eastwest;" parent="ZSzThWlPJtmQaBzK4Zqw-901" vertex="1">
          <mxGeometry y="760" width="480" height="40" as="geometry" />
        </mxCell>
        <mxCell id="ZSzThWlPJtmQaBzK4Zqw-1088" style="shape=partialRectangle;html=1;whiteSpace=wrap;connectable=0;strokeColor=inherit;overflow=hidden;fillColor=none;top=0;left=0;bottom=0;right=0;pointerEvents=1;" parent="ZSzThWlPJtmQaBzK4Zqw-1087" vertex="1">
          <mxGeometry width="40" height="40" as="geometry">
            <mxRectangle width="40" height="40" as="alternateBounds" />
          </mxGeometry>
        </mxCell>
        <mxCell id="ZSzThWlPJtmQaBzK4Zqw-1089" value="ram" style="shape=partialRectangle;html=1;whiteSpace=wrap;connectable=0;strokeColor=inherit;overflow=hidden;fillColor=none;top=0;left=0;bottom=0;right=0;pointerEvents=1;" parent="ZSzThWlPJtmQaBzK4Zqw-1087" vertex="1">
          <mxGeometry x="40" width="160" height="40" as="geometry">
            <mxRectangle width="160" height="40" as="alternateBounds" />
          </mxGeometry>
        </mxCell>
        <mxCell id="ZSzThWlPJtmQaBzK4Zqw-1090" value="VARCHAR(255)" style="shape=partialRectangle;html=1;whiteSpace=wrap;connectable=0;strokeColor=inherit;overflow=hidden;fillColor=none;top=0;left=0;bottom=0;right=0;pointerEvents=1;" parent="ZSzThWlPJtmQaBzK4Zqw-1087" vertex="1">
          <mxGeometry x="200" width="120" height="40" as="geometry">
            <mxRectangle width="120" height="40" as="alternateBounds" />
          </mxGeometry>
        </mxCell>
        <mxCell id="ZSzThWlPJtmQaBzK4Zqw-1091" style="shape=partialRectangle;html=1;whiteSpace=wrap;connectable=0;strokeColor=inherit;overflow=hidden;fillColor=none;top=0;left=0;bottom=0;right=0;pointerEvents=1;" parent="ZSzThWlPJtmQaBzK4Zqw-1087" vertex="1">
          <mxGeometry x="320" width="160" height="40" as="geometry">
            <mxRectangle width="160" height="40" as="alternateBounds" />
          </mxGeometry>
        </mxCell>
        <mxCell id="ZSzThWlPJtmQaBzK4Zqw-1082" style="shape=tableRow;horizontal=0;startSize=0;swimlaneHead=0;swimlaneBody=0;strokeColor=inherit;top=0;left=0;bottom=0;right=0;collapsible=0;dropTarget=0;fillColor=none;points=[[0,0.5],[1,0.5]];portConstraint=eastwest;" parent="ZSzThWlPJtmQaBzK4Zqw-901" vertex="1">
          <mxGeometry y="800" width="480" height="40" as="geometry" />
        </mxCell>
        <mxCell id="ZSzThWlPJtmQaBzK4Zqw-1083" style="shape=partialRectangle;html=1;whiteSpace=wrap;connectable=0;strokeColor=inherit;overflow=hidden;fillColor=none;top=0;left=0;bottom=0;right=0;pointerEvents=1;" parent="ZSzThWlPJtmQaBzK4Zqw-1082" vertex="1">
          <mxGeometry width="40" height="40" as="geometry">
            <mxRectangle width="40" height="40" as="alternateBounds" />
          </mxGeometry>
        </mxCell>
        <mxCell id="ZSzThWlPJtmQaBzK4Zqw-1084" value="storage_capacity" style="shape=partialRectangle;html=1;whiteSpace=wrap;connectable=0;strokeColor=inherit;overflow=hidden;fillColor=none;top=0;left=0;bottom=0;right=0;pointerEvents=1;" parent="ZSzThWlPJtmQaBzK4Zqw-1082" vertex="1">
          <mxGeometry x="40" width="160" height="40" as="geometry">
            <mxRectangle width="160" height="40" as="alternateBounds" />
          </mxGeometry>
        </mxCell>
        <mxCell id="ZSzThWlPJtmQaBzK4Zqw-1085" value="VARCHAR(255)" style="shape=partialRectangle;html=1;whiteSpace=wrap;connectable=0;strokeColor=inherit;overflow=hidden;fillColor=none;top=0;left=0;bottom=0;right=0;pointerEvents=1;" parent="ZSzThWlPJtmQaBzK4Zqw-1082" vertex="1">
          <mxGeometry x="200" width="120" height="40" as="geometry">
            <mxRectangle width="120" height="40" as="alternateBounds" />
          </mxGeometry>
        </mxCell>
        <mxCell id="ZSzThWlPJtmQaBzK4Zqw-1086" style="shape=partialRectangle;html=1;whiteSpace=wrap;connectable=0;strokeColor=inherit;overflow=hidden;fillColor=none;top=0;left=0;bottom=0;right=0;pointerEvents=1;" parent="ZSzThWlPJtmQaBzK4Zqw-1082" vertex="1">
          <mxGeometry x="320" width="160" height="40" as="geometry">
            <mxRectangle width="160" height="40" as="alternateBounds" />
          </mxGeometry>
        </mxCell>
        <mxCell id="ZSzThWlPJtmQaBzK4Zqw-1077" style="shape=tableRow;horizontal=0;startSize=0;swimlaneHead=0;swimlaneBody=0;strokeColor=inherit;top=0;left=0;bottom=0;right=0;collapsible=0;dropTarget=0;fillColor=none;points=[[0,0.5],[1,0.5]];portConstraint=eastwest;" parent="ZSzThWlPJtmQaBzK4Zqw-901" vertex="1">
          <mxGeometry y="840" width="480" height="40" as="geometry" />
        </mxCell>
        <mxCell id="ZSzThWlPJtmQaBzK4Zqw-1078" style="shape=partialRectangle;html=1;whiteSpace=wrap;connectable=0;strokeColor=inherit;overflow=hidden;fillColor=none;top=0;left=0;bottom=0;right=0;pointerEvents=1;" parent="ZSzThWlPJtmQaBzK4Zqw-1077" vertex="1">
          <mxGeometry width="40" height="40" as="geometry">
            <mxRectangle width="40" height="40" as="alternateBounds" />
          </mxGeometry>
        </mxCell>
        <mxCell id="ZSzThWlPJtmQaBzK4Zqw-1079" value="operating_system" style="shape=partialRectangle;html=1;whiteSpace=wrap;connectable=0;strokeColor=inherit;overflow=hidden;fillColor=none;top=0;left=0;bottom=0;right=0;pointerEvents=1;" parent="ZSzThWlPJtmQaBzK4Zqw-1077" vertex="1">
          <mxGeometry x="40" width="160" height="40" as="geometry">
            <mxRectangle width="160" height="40" as="alternateBounds" />
          </mxGeometry>
        </mxCell>
        <mxCell id="ZSzThWlPJtmQaBzK4Zqw-1080" value="VARCHAR(255)" style="shape=partialRectangle;html=1;whiteSpace=wrap;connectable=0;strokeColor=inherit;overflow=hidden;fillColor=none;top=0;left=0;bottom=0;right=0;pointerEvents=1;" parent="ZSzThWlPJtmQaBzK4Zqw-1077" vertex="1">
          <mxGeometry x="200" width="120" height="40" as="geometry">
            <mxRectangle width="120" height="40" as="alternateBounds" />
          </mxGeometry>
        </mxCell>
        <mxCell id="ZSzThWlPJtmQaBzK4Zqw-1081" style="shape=partialRectangle;html=1;whiteSpace=wrap;connectable=0;strokeColor=inherit;overflow=hidden;fillColor=none;top=0;left=0;bottom=0;right=0;pointerEvents=1;" parent="ZSzThWlPJtmQaBzK4Zqw-1077" vertex="1">
          <mxGeometry x="320" width="160" height="40" as="geometry">
            <mxRectangle width="160" height="40" as="alternateBounds" />
          </mxGeometry>
        </mxCell>
        <mxCell id="ZSzThWlPJtmQaBzK4Zqw-1072" style="shape=tableRow;horizontal=0;startSize=0;swimlaneHead=0;swimlaneBody=0;strokeColor=inherit;top=0;left=0;bottom=0;right=0;collapsible=0;dropTarget=0;fillColor=none;points=[[0,0.5],[1,0.5]];portConstraint=eastwest;" parent="ZSzThWlPJtmQaBzK4Zqw-901" vertex="1">
          <mxGeometry y="880" width="480" height="40" as="geometry" />
        </mxCell>
        <mxCell id="ZSzThWlPJtmQaBzK4Zqw-1073" style="shape=partialRectangle;html=1;whiteSpace=wrap;connectable=0;strokeColor=inherit;overflow=hidden;fillColor=none;top=0;left=0;bottom=0;right=0;pointerEvents=1;" parent="ZSzThWlPJtmQaBzK4Zqw-1072" vertex="1">
          <mxGeometry width="40" height="40" as="geometry">
            <mxRectangle width="40" height="40" as="alternateBounds" />
          </mxGeometry>
        </mxCell>
        <mxCell id="ZSzThWlPJtmQaBzK4Zqw-1074" value="size" style="shape=partialRectangle;html=1;whiteSpace=wrap;connectable=0;strokeColor=inherit;overflow=hidden;fillColor=none;top=0;left=0;bottom=0;right=0;pointerEvents=1;" parent="ZSzThWlPJtmQaBzK4Zqw-1072" vertex="1">
          <mxGeometry x="40" width="160" height="40" as="geometry">
            <mxRectangle width="160" height="40" as="alternateBounds" />
          </mxGeometry>
        </mxCell>
        <mxCell id="ZSzThWlPJtmQaBzK4Zqw-1075" value="VARCHAR(255)" style="shape=partialRectangle;html=1;whiteSpace=wrap;connectable=0;strokeColor=inherit;overflow=hidden;fillColor=none;top=0;left=0;bottom=0;right=0;pointerEvents=1;" parent="ZSzThWlPJtmQaBzK4Zqw-1072" vertex="1">
          <mxGeometry x="200" width="120" height="40" as="geometry">
            <mxRectangle width="120" height="40" as="alternateBounds" />
          </mxGeometry>
        </mxCell>
        <mxCell id="ZSzThWlPJtmQaBzK4Zqw-1076" style="shape=partialRectangle;html=1;whiteSpace=wrap;connectable=0;strokeColor=inherit;overflow=hidden;fillColor=none;top=0;left=0;bottom=0;right=0;pointerEvents=1;" parent="ZSzThWlPJtmQaBzK4Zqw-1072" vertex="1">
          <mxGeometry x="320" width="160" height="40" as="geometry">
            <mxRectangle width="160" height="40" as="alternateBounds" />
          </mxGeometry>
        </mxCell>
        <mxCell id="ZSzThWlPJtmQaBzK4Zqw-1067" style="shape=tableRow;horizontal=0;startSize=0;swimlaneHead=0;swimlaneBody=0;strokeColor=inherit;top=0;left=0;bottom=0;right=0;collapsible=0;dropTarget=0;fillColor=none;points=[[0,0.5],[1,0.5]];portConstraint=eastwest;" parent="ZSzThWlPJtmQaBzK4Zqw-901" vertex="1">
          <mxGeometry y="920" width="480" height="40" as="geometry" />
        </mxCell>
        <mxCell id="ZSzThWlPJtmQaBzK4Zqw-1068" style="shape=partialRectangle;html=1;whiteSpace=wrap;connectable=0;strokeColor=inherit;overflow=hidden;fillColor=none;top=0;left=0;bottom=0;right=0;pointerEvents=1;" parent="ZSzThWlPJtmQaBzK4Zqw-1067" vertex="1">
          <mxGeometry width="40" height="40" as="geometry">
            <mxRectangle width="40" height="40" as="alternateBounds" />
          </mxGeometry>
        </mxCell>
        <mxCell id="ZSzThWlPJtmQaBzK4Zqw-1069" value="weight" style="shape=partialRectangle;html=1;whiteSpace=wrap;connectable=0;strokeColor=inherit;overflow=hidden;fillColor=none;top=0;left=0;bottom=0;right=0;pointerEvents=1;" parent="ZSzThWlPJtmQaBzK4Zqw-1067" vertex="1">
          <mxGeometry x="40" width="160" height="40" as="geometry">
            <mxRectangle width="160" height="40" as="alternateBounds" />
          </mxGeometry>
        </mxCell>
        <mxCell id="ZSzThWlPJtmQaBzK4Zqw-1070" value="VARCHAR(255)" style="shape=partialRectangle;html=1;whiteSpace=wrap;connectable=0;strokeColor=inherit;overflow=hidden;fillColor=none;top=0;left=0;bottom=0;right=0;pointerEvents=1;" parent="ZSzThWlPJtmQaBzK4Zqw-1067" vertex="1">
          <mxGeometry x="200" width="120" height="40" as="geometry">
            <mxRectangle width="120" height="40" as="alternateBounds" />
          </mxGeometry>
        </mxCell>
        <mxCell id="ZSzThWlPJtmQaBzK4Zqw-1071" style="shape=partialRectangle;html=1;whiteSpace=wrap;connectable=0;strokeColor=inherit;overflow=hidden;fillColor=none;top=0;left=0;bottom=0;right=0;pointerEvents=1;" parent="ZSzThWlPJtmQaBzK4Zqw-1067" vertex="1">
          <mxGeometry x="320" width="160" height="40" as="geometry">
            <mxRectangle width="160" height="40" as="alternateBounds" />
          </mxGeometry>
        </mxCell>
        <mxCell id="ZSzThWlPJtmQaBzK4Zqw-1062" style="shape=tableRow;horizontal=0;startSize=0;swimlaneHead=0;swimlaneBody=0;strokeColor=inherit;top=0;left=0;bottom=0;right=0;collapsible=0;dropTarget=0;fillColor=none;points=[[0,0.5],[1,0.5]];portConstraint=eastwest;" parent="ZSzThWlPJtmQaBzK4Zqw-901" vertex="1">
          <mxGeometry y="960" width="480" height="40" as="geometry" />
        </mxCell>
        <mxCell id="ZSzThWlPJtmQaBzK4Zqw-1063" style="shape=partialRectangle;html=1;whiteSpace=wrap;connectable=0;strokeColor=inherit;overflow=hidden;fillColor=none;top=0;left=0;bottom=0;right=0;pointerEvents=1;" parent="ZSzThWlPJtmQaBzK4Zqw-1062" vertex="1">
          <mxGeometry width="40" height="40" as="geometry">
            <mxRectangle width="40" height="40" as="alternateBounds" />
          </mxGeometry>
        </mxCell>
        <mxCell id="ZSzThWlPJtmQaBzK4Zqw-1064" value="back_material" style="shape=partialRectangle;html=1;whiteSpace=wrap;connectable=0;strokeColor=inherit;overflow=hidden;fillColor=none;top=0;left=0;bottom=0;right=0;pointerEvents=1;" parent="ZSzThWlPJtmQaBzK4Zqw-1062" vertex="1">
          <mxGeometry x="40" width="160" height="40" as="geometry">
            <mxRectangle width="160" height="40" as="alternateBounds" />
          </mxGeometry>
        </mxCell>
        <mxCell id="ZSzThWlPJtmQaBzK4Zqw-1065" value="VARCHAR(255)" style="shape=partialRectangle;html=1;whiteSpace=wrap;connectable=0;strokeColor=inherit;overflow=hidden;fillColor=none;top=0;left=0;bottom=0;right=0;pointerEvents=1;" parent="ZSzThWlPJtmQaBzK4Zqw-1062" vertex="1">
          <mxGeometry x="200" width="120" height="40" as="geometry">
            <mxRectangle width="120" height="40" as="alternateBounds" />
          </mxGeometry>
        </mxCell>
        <mxCell id="ZSzThWlPJtmQaBzK4Zqw-1066" style="shape=partialRectangle;html=1;whiteSpace=wrap;connectable=0;strokeColor=inherit;overflow=hidden;fillColor=none;top=0;left=0;bottom=0;right=0;pointerEvents=1;" parent="ZSzThWlPJtmQaBzK4Zqw-1062" vertex="1">
          <mxGeometry x="320" width="160" height="40" as="geometry">
            <mxRectangle width="160" height="40" as="alternateBounds" />
          </mxGeometry>
        </mxCell>
        <mxCell id="ZSzThWlPJtmQaBzK4Zqw-1057" style="shape=tableRow;horizontal=0;startSize=0;swimlaneHead=0;swimlaneBody=0;strokeColor=inherit;top=0;left=0;bottom=0;right=0;collapsible=0;dropTarget=0;fillColor=none;points=[[0,0.5],[1,0.5]];portConstraint=eastwest;" parent="ZSzThWlPJtmQaBzK4Zqw-901" vertex="1">
          <mxGeometry y="1000" width="480" height="40" as="geometry" />
        </mxCell>
        <mxCell id="ZSzThWlPJtmQaBzK4Zqw-1058" style="shape=partialRectangle;html=1;whiteSpace=wrap;connectable=0;strokeColor=inherit;overflow=hidden;fillColor=none;top=0;left=0;bottom=0;right=0;pointerEvents=1;" parent="ZSzThWlPJtmQaBzK4Zqw-1057" vertex="1">
          <mxGeometry width="40" height="40" as="geometry">
            <mxRectangle width="40" height="40" as="alternateBounds" />
          </mxGeometry>
        </mxCell>
        <mxCell id="ZSzThWlPJtmQaBzK4Zqw-1059" value="frame_material" style="shape=partialRectangle;html=1;whiteSpace=wrap;connectable=0;strokeColor=inherit;overflow=hidden;fillColor=none;top=0;left=0;bottom=0;right=0;pointerEvents=1;" parent="ZSzThWlPJtmQaBzK4Zqw-1057" vertex="1">
          <mxGeometry x="40" width="160" height="40" as="geometry">
            <mxRectangle width="160" height="40" as="alternateBounds" />
          </mxGeometry>
        </mxCell>
        <mxCell id="ZSzThWlPJtmQaBzK4Zqw-1060" value="VARCHAR(255)" style="shape=partialRectangle;html=1;whiteSpace=wrap;connectable=0;strokeColor=inherit;overflow=hidden;fillColor=none;top=0;left=0;bottom=0;right=0;pointerEvents=1;" parent="ZSzThWlPJtmQaBzK4Zqw-1057" vertex="1">
          <mxGeometry x="200" width="120" height="40" as="geometry">
            <mxRectangle width="120" height="40" as="alternateBounds" />
          </mxGeometry>
        </mxCell>
        <mxCell id="ZSzThWlPJtmQaBzK4Zqw-1061" style="shape=partialRectangle;html=1;whiteSpace=wrap;connectable=0;strokeColor=inherit;overflow=hidden;fillColor=none;top=0;left=0;bottom=0;right=0;pointerEvents=1;" parent="ZSzThWlPJtmQaBzK4Zqw-1057" vertex="1">
          <mxGeometry x="320" width="160" height="40" as="geometry">
            <mxRectangle width="160" height="40" as="alternateBounds" />
          </mxGeometry>
        </mxCell>
        <mxCell id="ZSzThWlPJtmQaBzK4Zqw-1117" style="shape=tableRow;horizontal=0;startSize=0;swimlaneHead=0;swimlaneBody=0;strokeColor=inherit;top=0;left=0;bottom=0;right=0;collapsible=0;dropTarget=0;fillColor=none;points=[[0,0.5],[1,0.5]];portConstraint=eastwest;" parent="ZSzThWlPJtmQaBzK4Zqw-901" vertex="1">
          <mxGeometry y="1040" width="480" height="40" as="geometry" />
        </mxCell>
        <mxCell id="ZSzThWlPJtmQaBzK4Zqw-1118" style="shape=partialRectangle;html=1;whiteSpace=wrap;connectable=0;strokeColor=inherit;overflow=hidden;fillColor=none;top=0;left=0;bottom=0;right=0;pointerEvents=1;" parent="ZSzThWlPJtmQaBzK4Zqw-1117" vertex="1">
          <mxGeometry width="40" height="40" as="geometry">
            <mxRectangle width="40" height="40" as="alternateBounds" />
          </mxGeometry>
        </mxCell>
        <mxCell id="ZSzThWlPJtmQaBzK4Zqw-1119" value="wifi" style="shape=partialRectangle;html=1;whiteSpace=wrap;connectable=0;strokeColor=inherit;overflow=hidden;fillColor=none;top=0;left=0;bottom=0;right=0;pointerEvents=1;" parent="ZSzThWlPJtmQaBzK4Zqw-1117" vertex="1">
          <mxGeometry x="40" width="160" height="40" as="geometry">
            <mxRectangle width="160" height="40" as="alternateBounds" />
          </mxGeometry>
        </mxCell>
        <mxCell id="ZSzThWlPJtmQaBzK4Zqw-1120" value="VARCHAR(255)" style="shape=partialRectangle;html=1;whiteSpace=wrap;connectable=0;strokeColor=inherit;overflow=hidden;fillColor=none;top=0;left=0;bottom=0;right=0;pointerEvents=1;" parent="ZSzThWlPJtmQaBzK4Zqw-1117" vertex="1">
          <mxGeometry x="200" width="120" height="40" as="geometry">
            <mxRectangle width="120" height="40" as="alternateBounds" />
          </mxGeometry>
        </mxCell>
        <mxCell id="ZSzThWlPJtmQaBzK4Zqw-1121" style="shape=partialRectangle;html=1;whiteSpace=wrap;connectable=0;strokeColor=inherit;overflow=hidden;fillColor=none;top=0;left=0;bottom=0;right=0;pointerEvents=1;" parent="ZSzThWlPJtmQaBzK4Zqw-1117" vertex="1">
          <mxGeometry x="320" width="160" height="40" as="geometry">
            <mxRectangle width="160" height="40" as="alternateBounds" />
          </mxGeometry>
        </mxCell>
        <mxCell id="ZSzThWlPJtmQaBzK4Zqw-1112" style="shape=tableRow;horizontal=0;startSize=0;swimlaneHead=0;swimlaneBody=0;strokeColor=inherit;top=0;left=0;bottom=0;right=0;collapsible=0;dropTarget=0;fillColor=none;points=[[0,0.5],[1,0.5]];portConstraint=eastwest;" parent="ZSzThWlPJtmQaBzK4Zqw-901" vertex="1">
          <mxGeometry y="1080" width="480" height="40" as="geometry" />
        </mxCell>
        <mxCell id="ZSzThWlPJtmQaBzK4Zqw-1113" style="shape=partialRectangle;html=1;whiteSpace=wrap;connectable=0;strokeColor=inherit;overflow=hidden;fillColor=none;top=0;left=0;bottom=0;right=0;pointerEvents=1;" parent="ZSzThWlPJtmQaBzK4Zqw-1112" vertex="1">
          <mxGeometry width="40" height="40" as="geometry">
            <mxRectangle width="40" height="40" as="alternateBounds" />
          </mxGeometry>
        </mxCell>
        <mxCell id="ZSzThWlPJtmQaBzK4Zqw-1114" value="bluetooth" style="shape=partialRectangle;html=1;whiteSpace=wrap;connectable=0;strokeColor=inherit;overflow=hidden;fillColor=none;top=0;left=0;bottom=0;right=0;pointerEvents=1;" parent="ZSzThWlPJtmQaBzK4Zqw-1112" vertex="1">
          <mxGeometry x="40" width="160" height="40" as="geometry">
            <mxRectangle width="160" height="40" as="alternateBounds" />
          </mxGeometry>
        </mxCell>
        <mxCell id="ZSzThWlPJtmQaBzK4Zqw-1115" value="VARCHAR(255)" style="shape=partialRectangle;html=1;whiteSpace=wrap;connectable=0;strokeColor=inherit;overflow=hidden;fillColor=none;top=0;left=0;bottom=0;right=0;pointerEvents=1;" parent="ZSzThWlPJtmQaBzK4Zqw-1112" vertex="1">
          <mxGeometry x="200" width="120" height="40" as="geometry">
            <mxRectangle width="120" height="40" as="alternateBounds" />
          </mxGeometry>
        </mxCell>
        <mxCell id="ZSzThWlPJtmQaBzK4Zqw-1116" style="shape=partialRectangle;html=1;whiteSpace=wrap;connectable=0;strokeColor=inherit;overflow=hidden;fillColor=none;top=0;left=0;bottom=0;right=0;pointerEvents=1;" parent="ZSzThWlPJtmQaBzK4Zqw-1112" vertex="1">
          <mxGeometry x="320" width="160" height="40" as="geometry">
            <mxRectangle width="160" height="40" as="alternateBounds" />
          </mxGeometry>
        </mxCell>
        <mxCell id="ZSzThWlPJtmQaBzK4Zqw-1107" style="shape=tableRow;horizontal=0;startSize=0;swimlaneHead=0;swimlaneBody=0;strokeColor=inherit;top=0;left=0;bottom=0;right=0;collapsible=0;dropTarget=0;fillColor=none;points=[[0,0.5],[1,0.5]];portConstraint=eastwest;" parent="ZSzThWlPJtmQaBzK4Zqw-901" vertex="1">
          <mxGeometry y="1120" width="480" height="40" as="geometry" />
        </mxCell>
        <mxCell id="ZSzThWlPJtmQaBzK4Zqw-1108" style="shape=partialRectangle;html=1;whiteSpace=wrap;connectable=0;strokeColor=inherit;overflow=hidden;fillColor=none;top=0;left=0;bottom=0;right=0;pointerEvents=1;" parent="ZSzThWlPJtmQaBzK4Zqw-1107" vertex="1">
          <mxGeometry width="40" height="40" as="geometry">
            <mxRectangle width="40" height="40" as="alternateBounds" />
          </mxGeometry>
        </mxCell>
        <mxCell id="ZSzThWlPJtmQaBzK4Zqw-1109" value="note" style="shape=partialRectangle;html=1;whiteSpace=wrap;connectable=0;strokeColor=inherit;overflow=hidden;fillColor=none;top=0;left=0;bottom=0;right=0;pointerEvents=1;" parent="ZSzThWlPJtmQaBzK4Zqw-1107" vertex="1">
          <mxGeometry x="40" width="160" height="40" as="geometry">
            <mxRectangle width="160" height="40" as="alternateBounds" />
          </mxGeometry>
        </mxCell>
        <mxCell id="ZSzThWlPJtmQaBzK4Zqw-1110" value="VARCHAR(255)" style="shape=partialRectangle;html=1;whiteSpace=wrap;connectable=0;strokeColor=inherit;overflow=hidden;fillColor=none;top=0;left=0;bottom=0;right=0;pointerEvents=1;" parent="ZSzThWlPJtmQaBzK4Zqw-1107" vertex="1">
          <mxGeometry x="200" width="120" height="40" as="geometry">
            <mxRectangle width="120" height="40" as="alternateBounds" />
          </mxGeometry>
        </mxCell>
        <mxCell id="ZSzThWlPJtmQaBzK4Zqw-1111" style="shape=partialRectangle;html=1;whiteSpace=wrap;connectable=0;strokeColor=inherit;overflow=hidden;fillColor=none;top=0;left=0;bottom=0;right=0;pointerEvents=1;" parent="ZSzThWlPJtmQaBzK4Zqw-1107" vertex="1">
          <mxGeometry x="320" width="160" height="40" as="geometry">
            <mxRectangle width="160" height="40" as="alternateBounds" />
          </mxGeometry>
        </mxCell>
        <mxCell id="ZSzThWlPJtmQaBzK4Zqw-1102" style="shape=tableRow;horizontal=0;startSize=0;swimlaneHead=0;swimlaneBody=0;strokeColor=inherit;top=0;left=0;bottom=0;right=0;collapsible=0;dropTarget=0;fillColor=none;points=[[0,0.5],[1,0.5]];portConstraint=eastwest;" parent="ZSzThWlPJtmQaBzK4Zqw-901" vertex="1">
          <mxGeometry y="1160" width="480" height="40" as="geometry" />
        </mxCell>
        <mxCell id="ZSzThWlPJtmQaBzK4Zqw-1103" style="shape=partialRectangle;html=1;whiteSpace=wrap;connectable=0;strokeColor=inherit;overflow=hidden;fillColor=none;top=0;left=0;bottom=0;right=0;pointerEvents=1;" parent="ZSzThWlPJtmQaBzK4Zqw-1102" vertex="1">
          <mxGeometry width="40" height="40" as="geometry">
            <mxRectangle width="40" height="40" as="alternateBounds" />
          </mxGeometry>
        </mxCell>
        <mxCell id="ZSzThWlPJtmQaBzK4Zqw-1104" value="created_at" style="shape=partialRectangle;html=1;whiteSpace=wrap;connectable=0;strokeColor=inherit;overflow=hidden;fillColor=none;top=0;left=0;bottom=0;right=0;pointerEvents=1;" parent="ZSzThWlPJtmQaBzK4Zqw-1102" vertex="1">
          <mxGeometry x="40" width="160" height="40" as="geometry">
            <mxRectangle width="160" height="40" as="alternateBounds" />
          </mxGeometry>
        </mxCell>
        <mxCell id="ZSzThWlPJtmQaBzK4Zqw-1105" value="DATETIME" style="shape=partialRectangle;html=1;whiteSpace=wrap;connectable=0;strokeColor=inherit;overflow=hidden;fillColor=none;top=0;left=0;bottom=0;right=0;pointerEvents=1;" parent="ZSzThWlPJtmQaBzK4Zqw-1102" vertex="1">
          <mxGeometry x="200" width="120" height="40" as="geometry">
            <mxRectangle width="120" height="40" as="alternateBounds" />
          </mxGeometry>
        </mxCell>
        <mxCell id="ZSzThWlPJtmQaBzK4Zqw-1106" value="DEFAULT CURRENT_TIMESTAMP" style="shape=partialRectangle;html=1;whiteSpace=wrap;connectable=0;strokeColor=inherit;overflow=hidden;fillColor=none;top=0;left=0;bottom=0;right=0;pointerEvents=1;" parent="ZSzThWlPJtmQaBzK4Zqw-1102" vertex="1">
          <mxGeometry x="320" width="160" height="40" as="geometry">
            <mxRectangle width="160" height="40" as="alternateBounds" />
          </mxGeometry>
        </mxCell>
        <mxCell id="ZSzThWlPJtmQaBzK4Zqw-1097" style="shape=tableRow;horizontal=0;startSize=0;swimlaneHead=0;swimlaneBody=0;strokeColor=inherit;top=0;left=0;bottom=0;right=0;collapsible=0;dropTarget=0;fillColor=none;points=[[0,0.5],[1,0.5]];portConstraint=eastwest;" parent="ZSzThWlPJtmQaBzK4Zqw-901" vertex="1">
          <mxGeometry y="1200" width="480" height="40" as="geometry" />
        </mxCell>
        <mxCell id="ZSzThWlPJtmQaBzK4Zqw-1098" style="shape=partialRectangle;html=1;whiteSpace=wrap;connectable=0;strokeColor=inherit;overflow=hidden;fillColor=none;top=0;left=0;bottom=0;right=0;pointerEvents=1;" parent="ZSzThWlPJtmQaBzK4Zqw-1097" vertex="1">
          <mxGeometry width="40" height="40" as="geometry">
            <mxRectangle width="40" height="40" as="alternateBounds" />
          </mxGeometry>
        </mxCell>
        <mxCell id="ZSzThWlPJtmQaBzK4Zqw-1099" value="created_by" style="shape=partialRectangle;html=1;whiteSpace=wrap;connectable=0;strokeColor=inherit;overflow=hidden;fillColor=none;top=0;left=0;bottom=0;right=0;pointerEvents=1;" parent="ZSzThWlPJtmQaBzK4Zqw-1097" vertex="1">
          <mxGeometry x="40" width="160" height="40" as="geometry">
            <mxRectangle width="160" height="40" as="alternateBounds" />
          </mxGeometry>
        </mxCell>
        <mxCell id="ZSzThWlPJtmQaBzK4Zqw-1100" value="VARCHAR(100)" style="shape=partialRectangle;html=1;whiteSpace=wrap;connectable=0;strokeColor=inherit;overflow=hidden;fillColor=none;top=0;left=0;bottom=0;right=0;pointerEvents=1;" parent="ZSzThWlPJtmQaBzK4Zqw-1097" vertex="1">
          <mxGeometry x="200" width="120" height="40" as="geometry">
            <mxRectangle width="120" height="40" as="alternateBounds" />
          </mxGeometry>
        </mxCell>
        <mxCell id="ZSzThWlPJtmQaBzK4Zqw-1101" value="" style="shape=partialRectangle;html=1;whiteSpace=wrap;connectable=0;strokeColor=inherit;overflow=hidden;fillColor=none;top=0;left=0;bottom=0;right=0;pointerEvents=1;" parent="ZSzThWlPJtmQaBzK4Zqw-1097" vertex="1">
          <mxGeometry x="320" width="160" height="40" as="geometry">
            <mxRectangle width="160" height="40" as="alternateBounds" />
          </mxGeometry>
        </mxCell>
        <mxCell id="ZSzThWlPJtmQaBzK4Zqw-1092" style="shape=tableRow;horizontal=0;startSize=0;swimlaneHead=0;swimlaneBody=0;strokeColor=inherit;top=0;left=0;bottom=0;right=0;collapsible=0;dropTarget=0;fillColor=none;points=[[0,0.5],[1,0.5]];portConstraint=eastwest;" parent="ZSzThWlPJtmQaBzK4Zqw-901" vertex="1">
          <mxGeometry y="1240" width="480" height="70" as="geometry" />
        </mxCell>
        <mxCell id="ZSzThWlPJtmQaBzK4Zqw-1093" style="shape=partialRectangle;html=1;whiteSpace=wrap;connectable=0;strokeColor=inherit;overflow=hidden;fillColor=none;top=0;left=0;bottom=0;right=0;pointerEvents=1;" parent="ZSzThWlPJtmQaBzK4Zqw-1092" vertex="1">
          <mxGeometry width="40" height="70" as="geometry">
            <mxRectangle width="40" height="70" as="alternateBounds" />
          </mxGeometry>
        </mxCell>
        <mxCell id="ZSzThWlPJtmQaBzK4Zqw-1094" value="updated_at" style="shape=partialRectangle;html=1;whiteSpace=wrap;connectable=0;strokeColor=inherit;overflow=hidden;fillColor=none;top=0;left=0;bottom=0;right=0;pointerEvents=1;" parent="ZSzThWlPJtmQaBzK4Zqw-1092" vertex="1">
          <mxGeometry x="40" width="160" height="70" as="geometry">
            <mxRectangle width="160" height="70" as="alternateBounds" />
          </mxGeometry>
        </mxCell>
        <mxCell id="ZSzThWlPJtmQaBzK4Zqw-1095" value="DATETIME" style="shape=partialRectangle;html=1;whiteSpace=wrap;connectable=0;strokeColor=inherit;overflow=hidden;fillColor=none;top=0;left=0;bottom=0;right=0;pointerEvents=1;" parent="ZSzThWlPJtmQaBzK4Zqw-1092" vertex="1">
          <mxGeometry x="200" width="120" height="70" as="geometry">
            <mxRectangle width="120" height="70" as="alternateBounds" />
          </mxGeometry>
        </mxCell>
        <mxCell id="ZSzThWlPJtmQaBzK4Zqw-1096" value="DEFAULT CURRENT_TIMESTAMP ON UPDATE CURRENT_TIMESTAMP" style="shape=partialRectangle;html=1;whiteSpace=wrap;connectable=0;strokeColor=inherit;overflow=hidden;fillColor=none;top=0;left=0;bottom=0;right=0;pointerEvents=1;" parent="ZSzThWlPJtmQaBzK4Zqw-1092" vertex="1">
          <mxGeometry x="320" width="160" height="70" as="geometry">
            <mxRectangle width="160" height="70" as="alternateBounds" />
          </mxGeometry>
        </mxCell>
        <mxCell id="ZSzThWlPJtmQaBzK4Zqw-1138" style="shape=tableRow;horizontal=0;startSize=0;swimlaneHead=0;swimlaneBody=0;strokeColor=inherit;top=0;left=0;bottom=0;right=0;collapsible=0;dropTarget=0;fillColor=none;points=[[0,0.5],[1,0.5]];portConstraint=eastwest;" parent="ZSzThWlPJtmQaBzK4Zqw-901" vertex="1">
          <mxGeometry y="1310" width="480" height="40" as="geometry" />
        </mxCell>
        <mxCell id="ZSzThWlPJtmQaBzK4Zqw-1139" style="shape=partialRectangle;html=1;whiteSpace=wrap;connectable=0;strokeColor=inherit;overflow=hidden;fillColor=none;top=0;left=0;bottom=0;right=0;pointerEvents=1;" parent="ZSzThWlPJtmQaBzK4Zqw-1138" vertex="1">
          <mxGeometry width="40" height="40" as="geometry">
            <mxRectangle width="40" height="40" as="alternateBounds" />
          </mxGeometry>
        </mxCell>
        <mxCell id="ZSzThWlPJtmQaBzK4Zqw-1140" value="updated_by" style="shape=partialRectangle;html=1;whiteSpace=wrap;connectable=0;strokeColor=inherit;overflow=hidden;fillColor=none;top=0;left=0;bottom=0;right=0;pointerEvents=1;" parent="ZSzThWlPJtmQaBzK4Zqw-1138" vertex="1">
          <mxGeometry x="40" width="160" height="40" as="geometry">
            <mxRectangle width="160" height="40" as="alternateBounds" />
          </mxGeometry>
        </mxCell>
        <mxCell id="ZSzThWlPJtmQaBzK4Zqw-1141" value="VARCHAR(100)" style="shape=partialRectangle;html=1;whiteSpace=wrap;connectable=0;strokeColor=inherit;overflow=hidden;fillColor=none;top=0;left=0;bottom=0;right=0;pointerEvents=1;" parent="ZSzThWlPJtmQaBzK4Zqw-1138" vertex="1">
          <mxGeometry x="200" width="120" height="40" as="geometry">
            <mxRectangle width="120" height="40" as="alternateBounds" />
          </mxGeometry>
        </mxCell>
        <mxCell id="ZSzThWlPJtmQaBzK4Zqw-1142" style="shape=partialRectangle;html=1;whiteSpace=wrap;connectable=0;strokeColor=inherit;overflow=hidden;fillColor=none;top=0;left=0;bottom=0;right=0;pointerEvents=1;" parent="ZSzThWlPJtmQaBzK4Zqw-1138" vertex="1">
          <mxGeometry x="320" width="160" height="40" as="geometry">
            <mxRectangle width="160" height="40" as="alternateBounds" />
          </mxGeometry>
        </mxCell>
        <mxCell id="ZSzThWlPJtmQaBzK4Zqw-1133" style="shape=tableRow;horizontal=0;startSize=0;swimlaneHead=0;swimlaneBody=0;strokeColor=inherit;top=0;left=0;bottom=0;right=0;collapsible=0;dropTarget=0;fillColor=none;points=[[0,0.5],[1,0.5]];portConstraint=eastwest;" parent="ZSzThWlPJtmQaBzK4Zqw-901" vertex="1">
          <mxGeometry y="1350" width="480" height="40" as="geometry" />
        </mxCell>
        <mxCell id="ZSzThWlPJtmQaBzK4Zqw-1134" style="shape=partialRectangle;html=1;whiteSpace=wrap;connectable=0;strokeColor=inherit;overflow=hidden;fillColor=none;top=0;left=0;bottom=0;right=0;pointerEvents=1;" parent="ZSzThWlPJtmQaBzK4Zqw-1133" vertex="1">
          <mxGeometry width="40" height="40" as="geometry">
            <mxRectangle width="40" height="40" as="alternateBounds" />
          </mxGeometry>
        </mxCell>
        <mxCell id="ZSzThWlPJtmQaBzK4Zqw-1135" value="is_active" style="shape=partialRectangle;html=1;whiteSpace=wrap;connectable=0;strokeColor=inherit;overflow=hidden;fillColor=none;top=0;left=0;bottom=0;right=0;pointerEvents=1;" parent="ZSzThWlPJtmQaBzK4Zqw-1133" vertex="1">
          <mxGeometry x="40" width="160" height="40" as="geometry">
            <mxRectangle width="160" height="40" as="alternateBounds" />
          </mxGeometry>
        </mxCell>
        <mxCell id="ZSzThWlPJtmQaBzK4Zqw-1136" value="TINYINT" style="shape=partialRectangle;html=1;whiteSpace=wrap;connectable=0;strokeColor=inherit;overflow=hidden;fillColor=none;top=0;left=0;bottom=0;right=0;pointerEvents=1;" parent="ZSzThWlPJtmQaBzK4Zqw-1133" vertex="1">
          <mxGeometry x="200" width="120" height="40" as="geometry">
            <mxRectangle width="120" height="40" as="alternateBounds" />
          </mxGeometry>
        </mxCell>
        <mxCell id="ZSzThWlPJtmQaBzK4Zqw-1137" value="DEFAULT 0" style="shape=partialRectangle;html=1;whiteSpace=wrap;connectable=0;strokeColor=inherit;overflow=hidden;fillColor=none;top=0;left=0;bottom=0;right=0;pointerEvents=1;" parent="ZSzThWlPJtmQaBzK4Zqw-1133" vertex="1">
          <mxGeometry x="320" width="160" height="40" as="geometry">
            <mxRectangle width="160" height="40" as="alternateBounds" />
          </mxGeometry>
        </mxCell>
        <mxCell id="ZSzThWlPJtmQaBzK4Zqw-1128" style="shape=tableRow;horizontal=0;startSize=0;swimlaneHead=0;swimlaneBody=0;strokeColor=inherit;top=0;left=0;bottom=0;right=0;collapsible=0;dropTarget=0;fillColor=none;points=[[0,0.5],[1,0.5]];portConstraint=eastwest;" parent="ZSzThWlPJtmQaBzK4Zqw-901" vertex="1">
          <mxGeometry y="1390" width="480" height="40" as="geometry" />
        </mxCell>
        <mxCell id="ZSzThWlPJtmQaBzK4Zqw-1129" style="shape=partialRectangle;html=1;whiteSpace=wrap;connectable=0;strokeColor=inherit;overflow=hidden;fillColor=none;top=0;left=0;bottom=0;right=0;pointerEvents=1;" parent="ZSzThWlPJtmQaBzK4Zqw-1128" vertex="1">
          <mxGeometry width="40" height="40" as="geometry">
            <mxRectangle width="40" height="40" as="alternateBounds" />
          </mxGeometry>
        </mxCell>
        <mxCell id="ZSzThWlPJtmQaBzK4Zqw-1130" value="is_deleted" style="shape=partialRectangle;html=1;whiteSpace=wrap;connectable=0;strokeColor=inherit;overflow=hidden;fillColor=none;top=0;left=0;bottom=0;right=0;pointerEvents=1;" parent="ZSzThWlPJtmQaBzK4Zqw-1128" vertex="1">
          <mxGeometry x="40" width="160" height="40" as="geometry">
            <mxRectangle width="160" height="40" as="alternateBounds" />
          </mxGeometry>
        </mxCell>
        <mxCell id="ZSzThWlPJtmQaBzK4Zqw-1131" value="TINYINT" style="shape=partialRectangle;html=1;whiteSpace=wrap;connectable=0;strokeColor=inherit;overflow=hidden;fillColor=none;top=0;left=0;bottom=0;right=0;pointerEvents=1;" parent="ZSzThWlPJtmQaBzK4Zqw-1128" vertex="1">
          <mxGeometry x="200" width="120" height="40" as="geometry">
            <mxRectangle width="120" height="40" as="alternateBounds" />
          </mxGeometry>
        </mxCell>
        <mxCell id="ZSzThWlPJtmQaBzK4Zqw-1132" value="DEFAULT 0" style="shape=partialRectangle;html=1;whiteSpace=wrap;connectable=0;strokeColor=inherit;overflow=hidden;fillColor=none;top=0;left=0;bottom=0;right=0;pointerEvents=1;" parent="ZSzThWlPJtmQaBzK4Zqw-1128" vertex="1">
          <mxGeometry x="320" width="160" height="40" as="geometry">
            <mxRectangle width="160" height="40" as="alternateBounds" />
          </mxGeometry>
        </mxCell>
      </root>
    </mxGraphModel>
  </diagram>
</mxfile>
